<svg xmlns="http://www.w3.org/2000/svg" fill="none" viewBox="0 0 832 864"><path fill="#024" fill-rule="evenodd" d="M188 2c0 1.8-.7 2-8 2s-8 .2-8 2-.7 2-8 2-8 .2-8 2c0 1.7-.7 2-4 2s-4 .3-4 2c0 1.8-.7 2-6 2s-6 .2-6 2c0 1.7-.7 2-4 2s-4 .3-4 2-.7 2-4 2-4 .3-4 2q0 2-2 2t-2 2c0 1.7-.7 2-4 2s-4 .3-4 2q0 2-2 2t-2 2c0 1.7-.7 2-4 2s-4 .3-4 2q0 2-2 2t-2 2-2 2-2 2-2 2-2 2c0 1.7-.7 2-4 2s-4 .3-4 2q0 2-2 2t-2 2-2 2c-1.7 0-2 .7-2 4s-.3 4-2 4q-2 0-2 2t-2 2-2 2-2 2-2 2-2 2-2 2-2 2c-1.7 0-2 .7-2 4s-.3 4-2 4q-2 0-2 2t-2 2c-1.7 0-2 .7-2 4s-.3 4-2 4q-2 0-2 2t-2 2c-1.7 0-2 .7-2 4s-.3 4-2 4-2 .7-2 4-.3 4-2 4-2 .7-2 4-.3 4-2 4c-1.8 0-2 .7-2 6s-.2 6-2 6c-1.7 0-2 .7-2 4s-.3 4-2 4c-1.8 0-2 .7-2 8s-.2 8-2 8-2 .7-2 8-.2 8-2 8-2 .7-2 12-.1 12-2 12c-2 0-2 .7-2 24s0 24 2 24c1.8 0 2 .7 2 8 0 8 0 8 6 8 5.3 0 6-.2 6-2q0-2 2-2t2-2 2-2 2-2 2-2 2-2c0-1.7.7-2 4-2s4-.3 4-2q0-2 2-2t2-2 2-2 2-2 2-2 2-2 2-2 2-2 2-2 2-2 2-2 2-2c0-1.7.7-2 4-2s4-.3 4-2q0-2 2-2t2-2 2-2 2-2 2-2 2-2 2-2 2-2 2-2 2-2c0-1.7.7-2 4-2s4-.3 4-2q0-2 2-2t2-2 2-2 2-2 2-2 2-2 2-2 2-2 2-2 2-2c0-1.7.7-2 4-2s4-.3 4-2q0-2 2-2t2-2 2-2 2-2 2-2 2-2 2-2 2-2 2-2 2-2c0-1.7.7-2 4-2s4-.3 4-2q0-2 2-2t2-2 2-2 2-2 2-2 2-2c0-1.7.7-2 4-2s4-.3 4-2c0-2 .7-2 14-2s14 0 14 2c0 1.7.7 2 4 2s4 .3 4 2 .7 2 4 2 4 .3 4 2q0 2 2 2t2 2c0 1.7.7 2 4 2s4 .3 4 2q0 2 2 2t2 2 2 2 2 2 2 2 2 2 2 2 2 2 2 2 2 2 2 2 2 2 2 2 2 2 2 2 2 2 2 2 2 2 2 2 2 2 2 2 2 2 2 2 2 2 2 2c1.7 0 2 .7 2 4s.3 4 2 4q2 0 2 2t2 2 2 2 2 2 2 2 2 2c1.7 0 2 .7 2 4s.3 4 2 4q2 0 2 2t2 2 2 2c0 1.7.7 2 4 2s4-.3 4-2q0-2 2-2t2-2 2-2 2-2 2-2 2-2 2-2 2-2 2-2 2-2 2-2 2-2 2-2 2-2 2-2 2-2 2-2c1.7 0 2-.7 2-4s.3-4 2-4q2 0 2-2t2-2c1.7 0 2-.7 2-4s.3-4 2-4 2-.7 2-4 .3-4 2-4c1.8 0 2-.7 2-6s.2-6 2-6 2-.7 2-12 .1-12 2-12 2-.7 2-8-.2-8-2-8-2-.7-2-12-.1-12-2-12-2-.7-2-6-.2-6-2-6-2-.7-2-6-.2-6-2-6c-1.7 0-2-.7-2-4s-.3-4-2-4q-2 0-2-2t-2-2c-1.7 0-2-.7-2-4s-.3-4-2-4q-2 0-2-2t-2-2-2-2-2-2-2-2-2-2-2-2-2-2-2-2-2-2-2-2-2-2-2-2-2-2-2-2c0-1.7-.7-2-4-2s-4-.3-4-2q0-2-2-2t-2-2c0-1.7-.7-2-4-2s-4-.3-4-2-.7-2-4-2-4-.3-4-2-.7-2-4-2-4-.3-4-2c0-1.8-.7-2-6-2s-6-.2-6-2-.7-2-10-2-10-.1-10-2c0-2-.7-2-30-2s-30 0-30 2m500 76q0 2-2 2t-2 2-2 2-2 2-2 2-2 2-2 2c-1.7 0-2 .7-2 4s-.3 4-2 4q-2 0-2 2t-2 2c-1.8 0-2 .7-2 6s.2 6 2 6q2 0 2 2c0 1.7.7 2 4 2s4 .3 4 2 .7 2 4 2 4 .3 4 2q0 2 2 2t2 2c0 1.7.7 2 4 2s4 .3 4 2q0 2 2 2t2 2 2 2 2 2c0 1.7.7 2 4 2s4 .3 4 2q0 2 2 2t2 2 2 2 2 2 2 2 2 2 2 2 2 2 2 2 2 2 2 2 2 2 2 2 2 2 2 2 2 2 2 2 2 2 2 2 2 2 2 2c1.7 0 2 .7 2 4s.3 4 2 4q2 0 2 2t2 2 2 2 2 2 2 2 2 2c1.7 0 2 .7 2 4s.3 4 2 4q2 0 2 2t2 2c1.7 0 2 .7 2 4s.3 4 2 4 2 .7 2 4 .3 4 2 4 2 .7 2 4c0 4 0 4 4 4 3.3 0 4 .3 4 2q0 2 2 2t2-2c0-1.7.7-2 4-2s4-.3 4-2 .7-2 4-2 4-.3 4-2q0-2 2-2t2-2 2-2 2-2 2-2 2-2 2-2c1.8 0 2-.7 2-8s-.2-8-2-8c-1.7 0-2-.7-2-4s-.3-4-2-4-2-.7-2-4-.3-4-2-4-2-.7-2-4-.3-4-2-4q-2 0-2-2t-2-2c-1.7 0-2-.7-2-4s-.3-4-2-4q-2 0-2-2t-2-2-2-2-2-2c-1.7 0-2-.7-2-4s-.3-4-2-4q-2 0-2-2t-2-2-2-2-2-2-2-2-2-2-2-2-2-2-2-2-2-2-2-2-2-2-2-2-2-2-2-2-2-2-2-2-2-2-2-2-2-2-2-2-2-2-2-2-2-2-2-2-2-2-2-2c0-1.7-.7-2-4-2s-4-.3-4-2q0-2-2-2t-2-2c0-1.7-.7-2-4-2s-4-.3-4-2q0-2-2-2t-2-2c0-1.7-.7-2-4-2s-4-.3-4-2-.7-2-4-2-4-.3-4-2c0-1.8-.7-2-8-2s-8 .2-8 2m-28 52q0 2-2 2t-2 2-2 2-2 2-2 2-2 2-2 2-2 2-2 2-2 2-2 2-2 2-2 2-2 2-2 2-2 2-2 2-2 2-2 2-2 2-2 2-2 2-2 2-2 2-2 2-2 2-2 2-2 2-2 2-2 2-2 2-2 2-2 2-2 2-2 2-2 2-2 2-2 2-2 2-2 2-2 2-2 2-2 2-2 2-2 2-2 2-2 2-2 2-2 2-2 2-2 2-2 2-2 2-2 2-2 2-2 2-2 2c-1.7 0-2 .7-2 4s.3 4 2 4q2 0 2 2t2 2 2 2 2 2 2 2 2 2 2 2 2 2 2 2c0 1.7.7 2 4 2s4 .3 4 2q0 2 2 2t2 2 2 2 2 2 2 2 2 2 2 2 2 2 2 2 2 2 2 2 2 2 2 2 2 2 2 2 2 2 2 2c1.7 0 2 .7 2 4s.3 4 2 4q2 0 2 2t2 2 2 2 2 2 2 2 2 2 2 2 2 2 2 2 2 2 2 2 2 2 2 2 2 2 2 2 2 2 2 2 2 2 2 2 2 2 2 2 2 2 2 2c0 1.8.7 2 6 2s6-.2 6-2q0-2 2-2t2-2 2-2 2-2 2-2 2-2 2-2 2-2 2-2 2-2 2-2 2-2 2-2 2-2 2-2 2-2 2-2 2-2 2-2 2-2 2-2 2-2 2-2 2-2 2-2 2-2 2-2 2-2 2-2 2-2 2-2 2-2 2-2 2-2 2-2 2-2 2-2 2-2 2-2 2-2 2-2 2-2 2-2 2-2 2-2 2-2 2-2 2-2 2-2 2-2 2-2 2-2 2-2 2-2 2-2c1.8 0 2-.7 2-8s-.2-8-2-8c-1.7 0-2-.7-2-4s-.3-4-2-4q-2 0-2-2t-2-2c-1.7 0-2-.7-2-4s-.3-4-2-4q-2 0-2-2t-2-2-2-2-2-2-2-2-2-2c-1.7 0-2-.7-2-4s-.3-4-2-4q-2 0-2-2t-2-2-2-2-2-2-2-2-2-2-2-2-2-2-2-2-2-2-2-2-2-2-2-2-2-2-2-2-2-2-2-2-2-2-2-2-2-2-2-2-2-2-2-2c0-1.7-.7-2-4-2s-4-.3-4-2q0-2-2-2t-2-2-2-2-2-2c0-1.7-.7-2-4-2s-4-.3-4-2-.7-2-4-2-4-.3-4-2c0-1.8-.7-2-6-2s-6 .2-6 2m-440 68c0 1.8-.7 2-6 2s-6 .2-6 2q0 2-2 2t-2 2-2 2-2 2-2 2-2 2-2 2-2 2-2 2-2 2c0 1.7-.7 2-4 2s-4 .3-4 2q0 2-2 2t-2 2-2 2-2 2-2 2-2 2c0 1.7-.7 2-4 2s-4 .3-4 2q0 2-2 2t-2 2-2 2-2 2-2 2-2 2c0 1.7-.7 2-4 2s-4 .3-4 2q0 2-2 2t-2 2-2 2-2 2-2 2-2 2-2 2-2 2c0 1.7-.7 2-4 2s-4 .3-4 2q0 2-2 2t-2 2-2 2-2 2-2 2-2 2-2 2-2 2-2 2-2 2-2 2-2 2-2 2-2 2-2 2-2 2-2 2-2 2-2 2-2 2-2 2-2 2-2 2c-1.7 0-2 .7-2 4s-.3 4-2 4c-1.8 0-2 .7-2 8s.2 8 2 8c1.7 0 2 .7 2 4s.3 4 2 4q2 0 2 2t2 2 2 2 2 2 2 2 2 2 2 2 2 2 2 2 2 2c1.7 0 2 .7 2 4s.3 4 2 4q2 0 2 2t2 2 2 2 2 2 2 2 2 2 2 2 2 2 2 2 2 2 2 2 2 2 2 2 2 2c1.7 0 2 .7 2 4s.3 4 2 4q2 0 2 2t2 2 2 2 2 2 2 2 2 2 2 2 2 2 2 2 2 2 2 2 2 2 2 2 2 2 2 2 2 2 2 2 2 2c2 0 2 .7 2 16s0 16 2 16q2 0 2 2t2 2c1.7 0 2 .7 2 4s.3 4 2 4q2 0 2 2t2 2 2 2 2 2 2 2 2 2 2 2 2 2 2 2 2 2 2 2 2 2 2 2c0 1.9.7 2 10 2s10-.1 10-2c0-1.7.7-2 4-2s4-.3 4-2c0-1.8.7-2 6-2s6 .2 6 2q0 2 2 2t2 2 2 2 2 2 2 2 2 2 2 2c1.7 0 2 .7 2 4 0 4 0 4 4 4 3.3 0 4 .3 4 2 0 1.8.7 2 8 2s8-.2 8-2q0-2 2-2t2-2 2-2 2-2 2-2 2-2 2-2 2-2 2-2 2-2 2-2 2-2c0-1.7.7-2 4-2s4-.3 4-2q0-2 2-2t2-2 2-2 2-2 2-2 2-2 2-2 2-2 2-2 2 2c0 1.7.7 2 4 2s4 .3 4 2q0 2 2 2c1.7 0 2 .7 2 4s.3 4 2 4q2 0 2 2t2 2 2 2 2 2 2 2 2 2 2 2 2 2 2 2 2 2 2 2 2 2c1.7 0 2 .7 2 4s.3 4 2 4q2 0 2 2t2 2 2 2 2 2 2 2 2 2 2 2 2 2 2 2 2 2 2 2 2 2c1.7 0 2 .7 2 4s.3 4 2 4q2 0 2 2t2 2 2 2 2 2 2 2 2 2 2 2 2 2 2 2 2 2 2 2 2 2c1.7 0 2 .7 2 4s.3 4 2 4q2 0 2 2t2 2 2 2 2 2 2 2 2 2 2 2 2 2 2 2 2 2 2 2 2 2c1.7 0 2 .7 2 4s.3 4 2 4q2 0 2 2t2 2 2 2 2 2 2 2 2 2 2 2 2 2 2 2 2 2c1.7 0 2 .7 2 4s.3 4 2 4q2 0 2 2t2 2 2 2 2 2 2 2 2 2 2 2 2 2 2 2 2 2c1.7 0 2 .7 2 4s.3 4 2 4q2 0 2 2t2 2 2 2 2 2 2 2 2 2 2 2 2 2 2 2 2 2c1.7 0 2 .7 2 4s.3 4 2 4q2 0 2 2t2 2 2 2 2 2 2 2 2 2 2 2 2 2 2 2 2 2c1.7 0 2 .7 2 4s.3 4 2 4q2 0 2 2t2 2 2 2 2 2 2 2 2 2 2 2 2 2 2 2 2 2c1.7 0 2 .7 2 4s.3 4 2 4q2 0 2 2t2 2 2 2 2 2 2 2 2 2 2 2 2 2 2 2 2 2c1.7 0 2 .7 2 4s.3 4 2 4q2 0 2 2t2 2 2 2 2 2 2 2 2 2 2 2 2 2c1.7 0 2 .7 2 4s.3 4 2 4q2 0 2 2t2 2 2 2 2 2 2 2c0 1.7.7 2 4 2s4 .3 4 2q0 2 2 2t2 2c0 1.7.7 2 4 2s4 .3 4 2c0 1.8.7 2 6 2s6 .2 6 2c0 2 .7 2 18 2s18 0 18-2c0-1.8.7-2 6-2s6-.2 6-2c0-1.7.7-2 4-2s4-.3 4-2 .7-2 4-2 4-.3 4-2q0-2 2-2t2-2 2-2 2-2 2-2 2-2 2-2 2-2 2-2c1.7 0 2-.7 2-4s.3-4 2-4 2-.7 2-4 .3-4 2-4c1.8 0 2-.7 2-6s.2-6 2-6c2 0 2-.7 2-18s0-18-2-18c-1.8 0-2-.7-2-6s-.2-6-2-6c-1.7 0-2-.7-2-4s-.3-4-2-4q-2 0-2-2t-2-2c-1.7 0-2-.7-2-4s-.3-4-2-4q-2 0-2-2t-2-2-2-2-2-2c-1.7 0-2-.7-2-4s-.3-4-2-4q-2 0-2-2t-2-2-2-2-2-2-2-2-2-2-2-2-2-2c-1.7 0-2-.7-2-4s-.3-4-2-4q-2 0-2-2t-2-2-2-2-2-2-2-2-2-2-2-2-2-2c-1.7 0-2-.7-2-4s-.3-4-2-4q-2 0-2-2t-2-2-2-2-2-2-2-2-2-2-2-2-2-2-2-2-2-2-2-2-2-2c-1.7 0-2-.7-2-4s-.3-4-2-4q-2 0-2-2t-2-2-2-2-2-2-2-2-2-2-2-2-2-2-2-2-2-2-2-2-2-2-2-2-2-2-2-2-2-2c-1.7 0-2-.7-2-4s-.3-4-2-4q-2 0-2-2t-2-2-2-2-2-2-2-2-2-2-2-2-2-2-2-2-2-2-2-2-2-2-2-2-2-2-2-2-2-2c-1.7 0-2-.7-2-4s-.3-4-2-4q-2 0-2-2t-2-2-2-2-2-2-2-2-2-2-2-2-2-2-2-2-2-2-2-2-2-2-2-2-2-2-2-2-2-2c-1.7 0-2-.7-2-4s-.3-4-2-4q-2 0-2-2t-2-2-2-2-2-2-2-2-2-2-2-2-2-2-2-2-2-2-2-2-2-2-2-2-2-2-2-2-2-2c-1.7 0-2-.7-2-4s-.3-4-2-4q-2 0-2-2t-2-2-2-2-2-2-2-2-2-2-2-2-2-2-2-2-2-2-2-2-2-2-2-2-2-2-2-2-2-2c-1.7 0-2-.7-2-4s-.3-4-2-4q-2 0-2-2t-2-2-2-2-2-2-2-2-2-2-2-2-2-2-2-2-2-2-2-2-2-2-2-2-2-2c-1.7 0-2-.7-2-4s-.3-4-2-4q-2 0-2-2t-2-2-2-2-2-2-2-2-2-2-2-2-2-2-2-2-2-2-2-2-2-2-2-2-2-2c-1.7 0-2-.7-2-4s-.3-4-2-4q-2 0-2-2t-2-2-2-2-2-2-2-2-2-2-2-2-2-2-2-2-2-2-2-2-2-2-2-2-2-2c-1.7 0-2-.7-2-4s-.3-4-2-4q-2 0-2-2t-2-2-2-2-2-2-2-2-2-2-2-2-2-2-2-2-2-2c-1.7 0-2-.7-2-4s-.3-4-2-4q-2 0-2-2t-2-2-2-2-2-2-2-2-2-2-2-2-2-2-2-2-2-2-2-2-2-2-2-2-2-2-2-2c0-1.8-.7-2-8-2s-8 .2-8 2q0 2-2 2t-2 2c0 1.7-.7 2-4 2s-4 .3-4 2q0 2-2 2t-2 2-2 2-2 2-2 2-2 2c0 1.7-.7 2-4 2s-4 .3-4 2q0 2-2 2t-2 2-2 2-2 2-2 2-2 2-2 2-2 2-2 2-2 2c0 1.7-.7 2-4 2s-4 .3-4 2q0 2-2 2t-2 2-2 2-2 2-2 2-2 2-2 2-2 2-2 2-2 2c0 1.7-.7 2-4 2s-4 .3-4 2q0 2-2 2t-2 2-2 2-2 2-2 2c-1.8 0-2 .7-2 8s.2 8 2 8q2 0 2 2t2 2c1.7 0 2 .7 2 4s.3 4 2 4q2 0 2 2t2 2 2 2 2 2 2 2 2 2 2 2 2 2 2 2 2 2c1.7 0 2 .7 2 4s.3 4 2 4q2 0 2 2t2 2 2 2 2 2 2 2 2 2 2 2 2 2c1.7 0 2 .7 2 4s.3 4 2 4q2 0 2 2t2 2c1.8 0 2 .7 2 6 0 6 0 6-4 6-3.3 0-4-.3-4-2q0-2-2-2t-2-2-2-2-2-2-2-2-2-2-2-2-2-2-2-2-2-2-2-2c-1.7 0-2-.7-2-4s-.3-4-2-4q-2 0-2-2t-2-2-2-2-2-2-2-2-2-2-2-2-2-2c-1.7 0-2-.7-2-4s-.3-4-2-4q-2 0-2-2t-2-2-2-2-2-2-2-2-2-2-2-2-2-2-2-2-2-2c-1.7 0-2-.7-2-4s-.3-4-2-4-2-.7-2-4 .3-4 2-4 2-.7 2-4 .3-4 2-4q2 0 2-2c0-1.7.7-2 4-2s4-.3 4-2q0-2 2-2t2-2 2-2 2-2 2-2 2-2 2-2 2-2c0-1.7.7-2 4-2s4-.3 4-2q0-2 2-2t2-2 2-2 2-2 2-2 2-2 2-2 2-2c0-1.7.7-2 4-2s4-.3 4-2q0-2 2-2t2-2 2-2 2-2 2-2 2-2c0-1.7.7-2 4-2s4-.3 4-2q0-2 2-2t2-2 2-2 2-2 2-2 2-2 2-2 2-2c0-1.7.7-2 4-2 4 0 4 0 4-8 0-7.3-.2-8-2-8q-2 0-2-2t-2-2-2-2-2-2-2-2-2-2-2-2-2-2-2-2-2-2-2-2-2-2-2-2-2-2-2-2-2-2-2-2-2-2-2-2-2-2-2-2-2-2-2-2-2-2-2-2-2-2-2-2c0-1.7-.7-2-4-2s-4-.3-4-2c0-1.9-.7-2-10-2s-10 .1-10 2m280 44q0 2-2 2t-2 2-2 2-2 2-2 2-2 2-2 2-2 2-2 2-2 2-2 2-2 2-2 2-2 2-2 2-2 2-2 2-2 2-2 2-2 2-2 2-2 2-2 2-2 2-2 2-2 2-2 2-2 2-2 2c-1.9 0-2 .7-2 10s.1 10 2 10q2 0 2 2t2 2 2-2c0-1.8.7-2 6-2s6 .2 6 2q0 2 2 2t2 2 2 2 2 2 2 2 2 2 2 2 2 2 2 2 2 2 2 2 2 2 2 2 2 2 2 2 2 2 2 2 2 2 2 2 2 2 2 2 2 2 2 2 2 2 2 2 2 2c0 1.7.7 2 4 2s4-.3 4-2q0-2 2-2t2 2 2 2 2 2 2 2 2 2 2 2c1.8 0 2 .7 2 8s.2 8 2 8q2 0 2 2t2 2 2 2 2 2 2 2 2 2 2 2 2 2 2 2 2 2 2 2 2 2 2 2 2 2 2 2 2 2c1.7 0 2 .7 2 4s.3 4 2 4q2 0 2 2c0 1.7.7 2 4 2s4 .3 4 2q0 2 2 2c1.8 0 2 .7 2 6s-.2 6-2 6c-1.7 0-2 .7-2 4s.3 4 2 4q2 0 2 2c0 1.7.7 2 4 2s4 .3 4 2c0 1.8.7 2 8 2s8-.2 8-2c0-1.7.7-2 4-2s4-.3 4-2q0-2 2-2t2-2 2-2 2-2 2-2 2-2 2-2 2-2 2-2c1.7 0 2-.7 2-4s.3-4 2-4q2 0 2-2t2-2 2-2c0-1.7.7-2 4-2s4-.3 4-2q0-2 2-2t2-2 2-2 2-2 2-2 2-2 2-2c1.9 0 2-.7 2-10s-.1-10-2-10c-1.7 0-2-.7-2-4s-.3-4-2-4-2-.7-2-4-.3-4-2-4-2-.7-2-4-.3-4-2-4q-2 0-2-2t-2-2-2-2-2-2-2-2-2-2-2-2-2-2-2-2-2-2-2-2-2-2-2-2-2-2c-1.7 0-2-.7-2-4s-.3-4-2-4q-2 0-2-2t-2-2-2-2c0-1.7-.7-2-4-2s-4-.3-4-2c0-1.8-.7-2-8-2s-8-.2-8-2q0-2-2-2t-2-2-2-2-2-2-2-2c-1.8 0-2-.7-2-8s-.2-8-2-8q-2 0-2-2t-2-2-2-2-2-2-2-2-2-2-2-2-2-2-2-2-2-2-2-2-2-2-2-2-2-2-2-2-2-2-2-2-2-2-2-2-2-2-2-2-2-2-2-2c0-1.7-.7-2-4-2s-4-.3-4-2q0-2-2-2t-2-2-2-2-2-2c0-1.9-.7-2-10-2s-10 .1-10 2m-52 92q0 2-2 2t-2 2-2 2-2 2-2 2-2 2c0 1.7-.7 2-4 2s-4 .3-4 2q0 2-2 2c-1.8 0-2 .7-2 6s.2 6 2 6q2 0 2 2t2 2 2 2 2 2c1.7 0 2 .7 2 4s.3 4 2 4q2 0 2 2t2 2 2 2 2 2 2 2 2 2 2 2 2 2 2 2 2 2 2 2 2 2 2 2 2 2 2 2 2 2 2 2 2 2c1.7 0 2 .7 2 4s.3 4 2 4q2 0 2 2t2 2 2 2 2 2 2 2 2 2 2 2 2 2 2 2 2 2 2 2 2 2 2 2 2 2 2 2 2 2 2 2 2 2 2 2 2 2c1.7 0 2 .7 2 4s.3 4 2 4q2 0 2 2t2 2 2 2 2 2 2 2 2 2 2 2 2 2 2 2 2 2 2-2c0-1.7.7-2 4-2s4-.3 4-2q0-2 2-2t2-2 2-2 2-2 2-2 2-2 2-2 2-2 2-2 2-2 2-2c1.8 0 2-.7 2-8 0-8 0-8-4-8-3.3 0-4-.3-4-2q0-2-2-2t-2-2-2-2-2-2-2-2-2-2-2-2-2-2-2-2-2-2-2-2-2-2-2-2c-1.7 0-2-.7-2-4s-.3-4-2-4q-2 0-2-2t-2-2-2-2-2-2-2-2-2-2-2-2-2-2-2-2-2-2-2-2-2-2-2-2-2-2-2-2-2-2-2-2-2-2-2-2-2-2-2-2-2-2-2-2-2-2-2-2-2-2-2-2-2-2-2-2-2-2-2-2-2-2-2-2-2-2-2-2-2-2-2-2-2-2-2-2c0-1.8-.7-2-6-2s-6 .2-6 2M324 522q0 2-2 2t-2 2-2 2-2 2-2 2-2 2-2 2-2 2c0 1.7-.7 2-4 2s-4 .3-4 2q0 2-2 2t-2 2-2 2-2 2-2 2-2 2-2 2-2 2 2 2c1.7 0 2 .7 2 4s.3 4 2 4q2 0 2 2t2 2 2 2 2 2 2 2 2 2 2 2 2 2 2 2 2 2c1.7 0 2 .7 2 4s.3 4 2 4q2 0 2 2t2 2 2 2 2 2 2 2 2 2 2 2 2 2c1.7 0 2 .7 2 4s.3 4 2 4q2 0 2 2t2 2 2 2 2 2 2 2 2 2 2 2 2 2 2 2 2 2c1.7 0 2 .7 2 4s.3 4 2 4q2 0 2 2c0 1.7.7 2 4 2s4 .3 4 2c0 1.8.7 2 6 2s6-.2 6-2q0-2 2-2t2-2 2-2 2-2 2-2 2-2 2-2 2-2 2-2 2-2 2-2 2-2c0-1.7.7-2 4-2s4-.3 4-2q0-2 2-2c1.8 0 2-.7 2-6s-.2-6-2-6q-2 0-2-2t-2-2-2-2-2-2c-1.7 0-2-.7-2-4s-.3-4-2-4q-2 0-2-2t-2-2-2-2-2-2-2-2-2-2-2-2-2-2-2-2-2-2-2-2-2-2-2-2-2-2c-1.7 0-2-.7-2-4s-.3-4-2-4q-2 0-2-2t-2-2-2-2-2-2-2-2-2-2-2-2-2-2-2-2-2-2-2-2-2-2c-1.7 0-2-.7-2-4s-.3-4-2-4q-2 0-2-2t-2-2-2-2c0-1.8-.7-2-6-2s-6 .2-6 2m-100 16c0 1.7-.7 2-4 2s-4 .3-4 2q0 2-2 2t-2 2-2 2-2 2-2 2-2 2-2 2-2 2-2 2-2 2-2 2-2 2c0 1.7-.7 2-4 2s-4 .3-4 2q0 2-2 2t-2 2-2 2-2 2-2 2-2 2-2 2-2 2-2 2-2 2-2 2-2 2-2 2-2 2-2 2-2 2-2 2-2 2-2 2-2 2-2 2-2 2-2 2-2 2-2 2-2 2-2 2-2 2-2 2-2 2-2 2-2 2-2 2-2 2-2 2-2 2-2 2-2 2-2 2-2 2-2 2-2 2-2 2-2 2-2 2-2 2-2 2-2 2-2 2-2 2-2 2-2 2-2 2-2 2-2 2c-1.8 0-2 .7-2 6s.2 6 2 6c1.7 0 2 .7 2 4s.3 4 2 4q2 0 2 2t2 2 2 2 2 2c1.7 0 2 .7 2 4s.3 4 2 4q2 0 2 2t2 2 2 2 2 2 2 2 2 2c1.7 0 2 .7 2 4s.3 4 2 4q2 0 2 2t2 2 2 2 2 2 2 2 2 2 2 2 2 2 2 2 2 2 2 2 2 2 2 2 2 2 2 2 2 2 2 2 2 2 2 2 2 2 2 2c0 1.7.7 2 4 2s4 .3 4 2q0 2 2 2t2 2 2 2 2 2 2 2 2 2c0 1.7.7 2 4 2s4 .3 4 2q0 2 2 2t2 2c0 1.7.7 2 4 2s4 .3 4 2 .7 2 4 2 4 .3 4 2q0 2 2 2t2-2 2-2 2-2 2-2 2-2 2-2 2-2 2-2 2-2 2-2 2-2 2-2 2-2 2-2 2-2 2-2 2-2 2-2 2-2 2-2 2-2 2-2 2-2 2-2 2-2 2-2 2-2 2-2 2-2 2-2 2-2c0-1.7.7-2 4-2s4-.3 4-2q0-2 2-2t2-2 2-2 2-2 2-2 2-2 2-2 2-2 2-2 2-2 2-2 2-2 2-2 2-2 2-2 2-2 2-2 2-2 2-2 2-2 2-2 2-2 2-2 2-2 2-2 2-2 2-2 2-2 2-2 2-2 2-2 2-2 2-2 2-2 2-2 2-2 2-2 2-2 2-2 2-2 2-2c1.8 0 2-.7 2-6s-.2-6-2-6q-2 0-2-2t-2-2-2-2-2-2-2-2-2-2c-1.7 0-2-.7-2-4s-.3-4-2-4q-2 0-2-2t-2-2-2-2-2-2-2-2-2-2-2-2-2-2-2-2-2-2-2-2-2-2-2-2-2-2-2-2-2-2c-1.7 0-2-.7-2-4s-.3-4-2-4q-2 0-2-2t-2-2-2-2-2-2-2-2-2-2-2-2-2-2c-1.7 0-2-.7-2-4s-.3-4-2-4q-2 0-2-2c0-1.7-.7-2-4-2s-4-.3-4-2c0-1.8-.7-2-6-2s-6-.2-6-2q0-2-2-2t-2-2-2-2-2-2-2-2-2-2-2-2c-1.7 0-2-.7-2-4 0-4 0-4-8-4-7.3 0-8 .2-8 2M48 686c0 1.7-.7 2-4 2s-4 .3-4 2q0 2-2 2t-2 2-2 2-2 2-2 2-2 2-2 2-2 2-2 2-2 2-2 2c-1.7 0-2 .7-2 4s.3 4 2 4 2 .7 2 4 .3 4 2 4 2 .7 2 4 .3 4 2 4 2 .7 2 4 .3 4 2 4q2 0 2 2t2 2c1.7 0 2 .7 2 4s.3 4 2 4q2 0 2 2t2 2c1.7 0 2 .7 2 4s.3 4 2 4q2 0 2 2t2 2 2 2 2 2 2 2 2 2 2 2 2 2c1.7 0 2 .7 2 4s.3 4 2 4q2 0 2 2t2 2 2 2 2 2 2 2 2 2 2 2 2 2 2 2 2 2 2 2 2 2 2 2c0 1.7.7 2 4 2s4 .3 4 2q0 2 2 2t2 2 2 2 2 2 2 2 2 2 2 2 2 2c0 1.7.7 2 4 2s4 .3 4 2q0 2 2 2t2 2c0 1.7.7 2 4 2s4 .3 4 2q0 2 2 2t2 2c0 1.7.7 2 4 2s4 .3 4 2 .7 2 4 2 4 .3 4 2c0 1.8.7 2 8 2s8-.2 8-2q0-2 2-2t2-2 2-2 2-2 2-2 2-2 2-2 2-2 2-2c1.7 0 2-.7 2-4s.3-4 2-4c1.8 0 2-.7 2-8s-.2-8-2-8q-2 0-2-2c0-1.7-.7-2-4-2s-4-.3-4-2-.7-2-4-2-4-.3-4-2q0-2-2-2t-2-2-2-2-2-2c0-1.7-.7-2-4-2s-4-.3-4-2q0-2-2-2t-2-2-2-2-2-2-2-2-2-2c0-1.7-.7-2-4-2s-4-.3-4-2q0-2-2-2t-2-2-2-2-2-2-2-2-2-2-2-2-2-2-2-2-2-2-2-2-2-2-2-2-2-2-2-2-2-2-2-2-2-2-2-2c-1.7 0-2-.7-2-4s-.3-4-2-4q-2 0-2-2t-2-2-2-2-2-2-2-2-2-2-2-2-2-2c-1.7 0-2-.7-2-4s-.3-4-2-4q-2 0-2-2t-2-2c-1.7 0-2-.7-2-4s-.3-4-2-4q-2 0-2-2t-2-2c-1.7 0-2-.7-2-4 0-4 0-4-4-4-3.3 0-4-.3-4-2s-.7-2-4-2-4 .3-4 2"/><path fill="#eef4ef" fill-rule="evenodd" d="M76 58q0 2-2 2t-2 2-2 2-2 2 2 2 2-2 2-2 2-2 2-2 2-2-2-2-2 2m664 44q0 2 2 2t2 2 2 2 2-2-2-2-2-2-2-2-2 2m-372 34c0 7.3.2 8 2 8s2-.7 2-8-.2-8-2-8-2 .7-2 8m332 14q0 2 2 2t2 2 2 2 2-2-2-2-2-2-2-2-2 2m-548 4q0 2-2 2t-2 2 2 2 2-2 2-2 2-2-2-2-2 2m-28 24q0 2-2 2t-2 2 2 2 2-2 2-2 2-2-2-2-2 2m620 16q0 2 2 2t2 2 2 2 2-2-2-2-2-2-2-2-2 2m-152 4q0 2-2 2t-2 2-2 2-2 2-2 2-2 2-2 2-2 2-2 2-2 2-2 2-2 2-2 2-2 2-2 2-2 2-2 2-2 2-2 2-2 2-2 2-2 2-2 2-2 2 2 2 2-2 2-2 2-2 2-2 2-2 2-2 2-2 2-2 2-2 2-2 2-2 2-2 2-2 2-2 2-2 2-2 2-2 2-2 2-2 2-2 2-2 2-2 2-2 2-2 2-2-2-2-2 2m-496 4q0 2-2 2t-2 2 2 2 2-2 2-2 2-2-2-2-2 2m112 0q0 2-2 2t-2 2 2 2 2-2 2-2 2-2-2-2-2 2M68 226q0 2-2 2t-2 2 2 2 2-2 2-2 2-2-2-2-2 2m228 8q0 2 2 2t2 2 2 2 2 2 2 2 2-2-2-2-2-2-2-2-2-2-2-2-2 2m520 0q0 2-2 2t-2 2 2 2 2-2 2-2 2-2-2-2-2 2M40 250q0 2-2 2t-2 2-2 2-2 2 2 2 2-2 2-2 2-2 2-2 2-2-2-2-2 2m-40 6c0 3.3.3 4 2 4s2-.7 2-4-.3-4-2-4-2 .7-2 4m532-2q0 2 2 2t2 2 2 2 2 2 2 2 2-2-2-2-2-2-2-2-2-2-2-2-2 2m20 4q0 2 2 2t2 2 2 2 2 2 2 2 2 2 2 2 2-2-2-2-2-2-2-2-2-2-2-2-2-2-2-2-2 2m-436 20q0 2-2 2t-2 2-2 2-2 2 2 2 2-2 2-2 2-2 2-2 2-2-2-2-2 2m164 8q0 2-2 2t-2 2 2 2 2-2 2-2 2-2-2-2-2 2m4 12q0 2-2 2t-2 2 2 2 2-2 2-2 2-2-2-2-2 2m72 4q0 2 2 2t2 2 2 2 2-2-2-2-2-2-2-2-2 2m252 12q0 2 2 2t2 2 2 2 2 2 2 2 2 2 2 2 2 2 2 2 2 2 2 2 2 2 2 2 2 2 2 2 2-2-2-2-2-2-2-2-2-2-2-2-2-2-2-2-2-2-2-2-2-2-2-2-2-2-2-2-2-2-2-2-2 2m-532 4q0 2-2 2t-2 2-2 2-2 2 2 2 2-2 2-2 2-2 2-2 2-2-2-2-2 2m632 0q0 2-2 2t-2 2-2 2-2 2-2 2-2 2-2 2-2 2-2 2-2 2-2 2-2 2-2 2-2 2-2 2-2 2-2 2-2 2-2 2-2 2-2 2-2 2 2 2 2-2 2-2 2-2 2-2 2-2 2-2 2-2 2-2 2-2 2-2 2-2 2-2 2-2 2-2 2-2 2-2 2-2 2-2 2-2 2-2 2-2 2-2 2-2-2-2-2 2m-452 4q0 2-2 2t-2 2-2 2-2 2 2 2 2-2 2-2 2-2 2-2 2-2-2-2-2 2m204 0q0 2 2 2t2 2 2 2 2 2 2 2 2 2 2 2 2 2 2 2 2 2 2 2 2 2 2 2 2 2 2 2 2 2 2 2 2 2 2 2 2 2 2 2 2 2 2 2 2 2 2 2 2 2c0 1.7.7 2 4 2s4-.3 4-2-.7-2-4-2-4-.3-4-2q0-2-2-2t-2-2-2-2-2-2-2-2-2-2-2-2-2-2-2-2-2-2-2-2-2-2-2-2-2-2-2-2-2-2-2-2-2-2-2-2-2-2-2-2-2-2-2-2-2-2-2-2-2 2m-80 8q0 2 2 2t2 2 2 2 2-2-2-2-2-2-2-2-2 2m236 4q0 2 2 2t2 2 2 2 2 2 2 2 2-2-2-2-2-2-2-2-2-2-2-2-2 2m-152 8q0 2 2 2t2 2 2 2 2 2 2 2 2 2 2 2 2 2 2 2 2 2 2 2 2 2 2 2 2 2 2 2 2 2 2 2 2 2 2 2 2 2 2 2 2 2 2 2 2 2 2 2 2 2 2 2 2 2 2 2 2 2 2 2 2 2 2 2 2 2 2 2 2 2 2 2 2-2-2-2-2-2-2-2-2-2-2-2-2-2-2-2-2-2-2-2-2-2-2-2-2-2-2-2-2-2-2-2-2-2-2-2-2-2-2-2-2-2-2-2-2-2-2-2-2-2-2-2-2-2-2-2-2-2-2-2-2-2-2-2-2-2-2-2-2-2-2-2-2-2-2-2-2 2m-36 8q0 2-2 2t-2 2 2 2 2-2 2-2 2-2-2-2-2 2m-20 12q0 2 2 2t2 2 2 2 2 2 2 2 2-2-2-2-2-2-2-2-2-2-2-2-2 2m236 4q0 2 2 2t2 2 2 2 2 2 2 2 2-2-2-2-2-2-2-2-2-2-2-2-2 2m-120 8q0 2 2 2t2 2 2 2 2 2 2 2 2-2-2-2-2-2-2-2-2-2-2-2-2 2m-88 4q0 2 2 2t2 2 2 2 2 2 2 2 2-2-2-2-2-2-2-2-2-2-2-2-2 2m-344 4q0 2 2 2t2 2 2 2 2 2 2 2 2-2-2-2-2-2-2-2-2-2-2-2-2 2m132 0q0 2 2 2t2 2 2 2 2-2-2-2-2-2-2-2-2 2m-8 12q0 2 2 2t2 2 2 2 2-2-2-2-2-2-2-2-2 2m224 4q0 2 2 2t2 2 2 2 2 2 2 2 2-2-2-2-2-2-2-2-2-2-2-2-2 2m-316 20q0 2 2 2t2 2 2 2 2 2 2 2 2 2 2 2 2 2 2 2 2 2 2 2 2 2 2 2 2 2 2 2 2 2 2 2 2-2-2-2-2-2-2-2-2-2-2-2-2-2-2-2-2-2-2-2-2-2-2-2-2-2-2-2-2-2-2-2-2-2-2-2-2 2m112 0q0 2 2 2t2 2 2 2 2-2-2-2-2-2-2-2-2 2m240 4q0 2 2 2t2 2 2 2 2 2 2 2 2 2 2 2 2-2-2-2-2-2-2-2-2-2-2-2-2-2-2-2-2 2m180 8q0 2-2 2t-2 2 2 2 2-2 2-2 2-2-2-2-2 2m-388 4q0 2 2 2t2 2 2 2 2-2-2-2-2-2-2-2-2 2m208 4q0 2 2 2t2 2 2 2 2-2-2-2-2-2-2-2-2 2m96 0q0 2 2 2t2 2 2 2 2-2-2-2-2-2-2-2-2 2m-312 8q0 2 2 2t2 2 2 2 2-2-2-2-2-2-2-2-2 2m376 4q0 2-2 2t-2 2-2 2-2 2-2 2-2 2-2 2-2 2-2 2-2 2 2 2 2-2 2-2 2-2 2-2 2-2 2-2 2-2 2-2 2-2 2-2 2-2-2-2-2 2m-64 12q0 2-2 2t-2 2-2 2-2 2-2 2-2 2-2 2-2 2-2 2-2 2-2 2-2 2 2 2 2-2 2-2 2-2 2-2 2-2 2-2 2-2 2-2 2-2 2-2 2-2 2-2 2-2-2-2-2 2m-52 8q0 2 2 2t2 2 2 2 2 2 2 2 2 2 2 2 2-2-2-2-2-2-2-2-2-2-2-2-2-2-2-2-2 2m-12 4q0 2 2 2t2 2 2 2 2 2 2 2 2-2-2-2-2-2-2-2-2-2-2-2-2 2m-336 24q0 2 2 2t2 2 2 2 2-2-2-2-2-2-2-2-2 2m144 12q0 2-2 2t-2 2-2 2-2 2 2 2 2-2 2-2 2-2 2-2 2-2-2-2-2 2m28 4q0 2 2 2t2 2 2 2 2-2-2-2-2-2-2-2-2 2m200 0q0 2 2 2t2 2 2 2 2 2 2 2 2-2-2-2-2-2-2-2-2-2-2-2-2 2m-212 8q0 2 2 2t2 2 2 2 2 2 2 2 2-2-2-2-2-2-2-2-2-2-2-2-2 2m-52 20q0 2-2 2t-2 2 2 2 2-2 2-2 2-2-2-2-2 2m20 0q0 2-2 2t-2 2-2 2-2 2 2 2 2-2 2-2 2-2 2-2 2-2-2-2-2 2m72 4q0 2 2 2t2 2 2 2 2 2 2 2 2-2-2-2-2-2-2-2-2-2-2-2-2 2m204 4q0 2 2 2t2 2 2 2 2 2 2 2 2 2 2 2 2-2-2-2-2-2-2-2-2-2-2-2-2-2-2-2-2 2m-216 4q0 2 2 2t2 2 2 2 2 2 2 2 2-2-2-2-2-2-2-2-2-2-2-2-2 2m-88 12q0 2 2 2t2 2 2 2 2-2-2-2-2-2-2-2-2 2m16 0q0 2 2 2t2 2 2 2 2 2 2 2 2-2-2-2-2-2-2-2-2-2-2-2-2 2m-104 4q0 2-2 2t-2 2-2 2-2 2-2 2-2 2-2 2-2 2-2 2-2 2-2 2-2 2-2 2-2 2-2 2-2 2 2 2 2-2 2-2 2-2 2-2 2-2 2-2 2-2 2-2 2-2 2-2 2-2 2-2 2-2 2-2 2-2 2-2 2-2-2-2-2 2m216 8q0 2 2 2t2 2 2 2 2 2 2 2 2-2-2-2-2-2-2-2-2-2-2-2-2 2m-108 12q0 2 2 2t2 2 2 2 2-2-2-2-2-2-2-2-2 2m100 0q0 2 2 2t2 2 2 2 2 2 2 2 2-2-2-2-2-2-2-2-2-2-2-2-2 2m-80 4q0 2 2 2t2 2 2 2 2-2-2-2-2-2-2-2-2 2m304 0q0 2 2 2t2 2 2 2 2 2 2 2 2-2-2-2-2-2-2-2-2-2-2-2-2 2m-188 16q0 2 2 2t2 2 2 2 2-2-2-2-2-2-2-2-2 2m-96 8q0 2 2 2t2 2 2 2 2 2 2 2 2 2 2 2 2 2 2 2 2-2-2-2-2-2-2-2-2-2-2-2-2-2-2-2-2-2-2-2-2 2m-8 8q0 2 2 2t2 2 2 2 2 2 2 2 2-2-2-2-2-2-2-2-2-2-2-2-2 2m328 8q0 2 2 2t2 2 2 2 2 2 2 2 2-2-2-2-2-2-2-2-2-2-2-2-2 2m-196 8q0 2 2 2t2 2 2 2 2-2-2-2-2-2-2-2-2 2m-100 4q0 2 2 2t2 2 2 2 2-2-2-2-2-2-2-2-2 2m324 20q0 2 2 2t2 2 2 2 2 2 2 2 2-2-2-2-2-2-2-2-2-2-2-2-2 2m-200 4q0 2 2 2t2 2 2 2 2-2-2-2-2-2-2-2-2 2M48 686c0 1.7.7 2 4 2s4-.3 4-2-.7-2-4-2-4 .3-4 2m268 8q0 2-2 2t-2 2-2 2-2 2-2 2-2 2-2 2-2 2-2 2-2 2-2 2-2 2-2 2-2 2-2 2-2 2-2 2-2 2-2 2-2 2-2 2-2 2-2 2-2 2-2 2-2 2 2 2 2-2 2-2 2-2 2-2 2-2 2-2 2-2 2-2 2-2 2-2 2-2 2-2 2-2 2-2 2-2 2-2 2-2 2-2 2-2 2-2 2-2 2-2 2-2 2-2 2-2 2-2 2-2-2-2-2 2m388 0q0 2 2 2t2 2 2 2 2-2-2-2-2-2-2-2-2 2m-200 4q0 2 2 2t2 2 2 2 2-2-2-2-2-2-2-2-2 2m24 28q0 2 2 2t2 2 2 2 2-2-2-2-2-2-2-2-2 2m-436 8q0 2 2 2t2 2 2 2 2-2-2-2-2-2-2-2-2 2m12 0q0 2 2 2t2 2 2 2 2 2 2 2 2 2 2 2 2-2-2-2-2-2-2-2-2-2-2-2-2-2-2-2-2 2m448 20q0 2 2 2t2 2 2 2 2-2-2-2-2-2-2-2-2 2m-416 12q0 2 2 2t2 2 2 2 2 2 2 2 2 2 2 2 2-2-2-2-2-2-2-2-2-2-2-2-2-2-2-2-2 2m440 16q0 2 2 2t2 2 2 2 2-2-2-2-2-2-2-2-2 2m-432 4q0 2 2 2t2 2 2 2 2-2-2-2-2-2-2-2-2 2m-80 4q0 2 2 2t2 2 2 2 2 2 2 2 2 2 2 2 2 2 2 2 2 2 2 2 2 2 2 2 2 2 2 2 2-2-2-2-2-2-2-2-2-2-2-2-2-2-2-2-2-2-2-2-2-2-2-2-2-2-2-2-2-2-2-2-2 2m100 12q0 2 2 2t2 2 2 2 2-2-2-2-2-2-2-2-2 2m436 8q0 2 2 2t2 2 2 2 2-2-2-2-2-2-2-2-2 2m20 24q0 2 2 2t2 2 2 2 2 2 2 2 2 2 2 2 2-2-2-2-2-2-2-2-2-2-2-2-2-2-2-2-2 2m-432 8q0 2-2 2t-2 2-2 2-2 2 2 2 2-2 2-2 2-2 2-2 2-2-2-2-2 2"/><path fill="#69be28" fill-rule="evenodd" d="M504 242c0 1.7-.7 2-4 2s-4 .3-4 2q0 2-2 2t-2 2-2 2-2 2-2 2-2 2-2 2-2 2-2 2-2 2-2 2-2 2-2 2-2 2-2 2-2 2-2 2-2 2-2 2-2 2-2 2-2 2-2 2-2 2-2 2-2 2-2 2c-1.8 0-2 .7-2 8s.2 8 2 8c1.7 0 2 .7 2 4s.3 4 2 4q2 0 2-2c0-1.8.7-2 8-2s8 .2 8 2q0 2 2 2t2 2 2 2 2 2 2 2 2 2 2 2 2 2 2 2 2 2 2 2 2 2 2 2 2 2 2 2 2 2 2 2 2 2 2 2 2 2 2 2 2 2 2 2 2 2c0 1.8.7 2 8 2s8 .2 8 2q0 2 2 2t2 2 2 2c1.9 0 2 .7 2 10s.1 10 2 10q2 0 2 2t2 2 2 2 2 2 2 2 2 2 2 2 2 2 2 2 2 2 2 2 2 2 2 2 2 2 2 2 2 2 2 2 2 2 2 2 2 2 2 2c0 1.7.7 2 4 2 4 0 4 0 4 10 0 9.3-.1 10-2 10q-2 0-2 2t2 2 2 2c0 1.7.7 2 4 2s4 .3 4 2c0 1.8.7 2 8 2s8-.2 8-2q0-2 2-2t2-2 2-2 2-2 2-2 2-2 2-2 2-2 2-2 2-2 2-2 2-2 2-2 2-2 2-2 2-2 2-2 2-2 2-2 2-2 2-2 2-2c0-1.7.7-2 4-2s4-.3 4-2q0-2 2-2c1.7 0 2-.7 2-4s.3-4 2-4c1.8 0 2-.7 2-6s-.2-6-2-6-2-.7-2-6-.2-6-2-6c-1.7 0-2-.7-2-4s-.3-4-2-4-2-.7-2-4c0-4 0-4-4-4-3.3 0-4-.3-4-2q0-2-2-2t-2-2-2-2c-1.7 0-2-.7-2-4s-.3-4-2-4q-2 0-2-2t-2-2-2-2-2-2-2-2-2-2-2-2-2-2-2-2-2-2-2-2-2-2-2-2-2-2-2-2c0-1.9-.7-2-10-2-10 0-10 0-10-4 0-3.3-.3-4-2-4q-2 0-2-2t-2-2c-1.8 0-2-.7-2-8s-.2-8-2-8q-2 0-2-2t-2-2-2-2-2-2-2-2-2-2-2-2-2-2-2-2-2-2-2-2-2-2-2-2-2-2-2-2-2-2-2-2c0-1.7-.7-2-4-2s-4-.3-4-2q0-2-2-2t-2-2-2-2-2-2-2-2-2-2-2-2-2-2c0-1.7-.7-2-4-2s-4-.3-4-2c0-1.8-.7-2-6-2s-6 .2-6 2M328 522c0 1.7-.7 2-4 2s-4 .3-4 2q0 2-2 2t-2 2-2 2-2 2-2 2-2 2-2 2-2 2-2 2-2 2-2 2-2 2c0 1.7-.7 2-4 2-4 0-4 0-4 6 0 5.3.2 6 2 6q2 0 2 2t2 2 2 2 2 2c1.7 0 2 .7 2 4s.3 4 2 4q2 0 2 2t2 2 2 2 2 2 2 2 2 2 2 2 2 2c1.7 0 2 .7 2 4s.3 4 2 4q2 0 2 2t2 2 2 2 2 2 2 2 2 2 2 2 2 2 2 2 2 2 2 2 2 2 2 2 2 2c1.7 0 2 .7 2 4s.3 4 2 4q2 0 2 2t2 2 2 2 2 2 2 2 2 2 2 2c0 1.7.7 2 4 2s4-.3 4-2 .7-2 4-2 4-.3 4-2q0-2 2-2t2-2 2-2 2-2 2-2 2-2 2-2 2-2 2-2 2-2 2-2 2-2c0-1.7.7-2 4-2 4 0 4 0 4-6 0-5.3-.2-6-2-6q-2 0-2-2t-2-2-2-2-2-2-2-2-2-2-2-2-2-2-2-2-2-2c-1.7 0-2-.7-2-4s-.3-4-2-4q-2 0-2-2t-2-2-2-2-2-2-2-2-2-2-2-2-2-2-2-2-2-2-2-2-2-2-2-2-2-2c-1.7 0-2-.7-2-4s-.3-4-2-4q-2 0-2-2t-2-2-2-2-2-2-2-2-2-2-2-2-2-2-2-2-2-2-2-2-2-2-2-2-2-2-2 2m324 216c0 1.7-.7 2-4 2s-4 .3-4 2q0 2-2 2t-2 2-2 2c-1.7 0-2 .7-2 4s-.3 4-2 4c-2 0-2 .7-2 18s0 18 2 18c1.7 0 2 .7 2 4s.3 4 2 4q2 0 2 2t2 2 2 2 2 2 2 2 2 2 2 2 2 2 2 2c0 1.7.7 2 4 2s4 .3 4 2c0 2 .7 2 16 2s16 0 16-2c0-1.7.7-2 4-2s4-.3 4-2q0-2 2-2t2-2 2-2 2-2 2-2c1.8 0 2-.7 2-6s.2-6 2-6 2-.7 2-10-.1-10-2-10c-1.7 0-2-.7-2-4s-.3-4-2-4-2-.7-2-4-.3-4-2-4q-2 0-2-2t-2-2-2-2-2-2-2-2-2-2-2-2-2-2-2-2c0-1.7-.7-2-4-2s-4-.3-4-2c0-2-.7-2-16-2s-16 0-16 2m4 20q0 2-2 2c-1.9 0-2 .7-2 14s.1 14 2 14q2 0 2 2t2 2 2 2 2 2 2 2 2 2 2 2c0 1.9.7 2 12 2s12-.1 12-2q0-2 2-2t2-2 2-2c1.8 0 2-.7 2-8s-.2-8-2-8c-1.7 0-2-.7-2-4s-.3-4-2-4q-2 0-2-2t-2-2-2-2-2-2-2-2-2-2-2-2c0-1.9-.7-2-12-2s-12 .1-12 2"/></svg>