<svg xmlns="http://www.w3.org/2000/svg" fill="none" viewBox="0 0 904 784"><path fill="#024" fill-rule="evenodd" d="M352 2c0 1.8-.7 2-6 2s-6 .2-6 2c0 1.7-.7 2-4 2s-4 .3-4 2c0 1.8-.7 2-6 2s-6 .2-6 2c0 1.7-.7 2-4 2s-4 .3-4 2c0 1.8-.7 2-6 2s-6 .2-6 2c0 1.7-.7 2-4 2s-4 .3-4 2c0 1.8-.7 2-6 2s-6 .2-6 2c0 1.7-.7 2-4 2s-4 .3-4 2-.7 2-4 2-4 .3-4 2c0 1.8-.7 2-6 2s-6 .2-6 2c0 1.7-.7 2-4 2s-4 .3-4 2-.7 2-4 2-4 .3-4 2-.7 2-4 2-4 .3-4 2-.7 2-4 2-4 .3-4 2-.7 2-4 2-4 .3-4 2-.7 2-4 2-4 .3-4 2q0 2-2 2c-1.7 0-2 .7-2 4s-.3 4-2 4c-2 0-2 .7-2 144 0 144 0 144-6 144-5.3 0-6-.2-6-2q0-2-2-2c-2 0-2-.7-2-82 0-82 0-82-4-82-3.3 0-4 .3-4 2s-.7 2-4 2-4 .3-4 2-.7 2-4 2-4 .3-4 2c0 1.8-.7 2-6 2s-6 .2-6 2c0 1.7-.7 2-4 2s-4 .3-4 2-.7 2-4 2-4 .3-4 2-.7 2-4 2-4 .3-4 2-.7 2-4 2-4 .3-4 2-.7 2-4 2-4 .3-4 2q0 2-2 2c-1.7 0-2 .7-2 4s-.3 4-2 4c-2 0-2 .7-2 134s0 134 2 134 2 .7 2 18c0 18 0 18 4 18 3.3 0 4 .3 4 2q0 2 2 2t2-2c0-1.8.7-2 8-2s8 .2 8 2c0 2 .7 2 24 2s24 0 24-2q0-2 2-2c2 0 2-.7 2-70 0-70 0-70 8-70s8 0 8 48c0 47.3 0 48 2 48s2 .7 2 20 0 20-2 20c-1.8 0-2 .7-2 8 0 8 0 8-58 8-57.3 0-58 0-58 2 0 1.8-.7 2-8 2s-8 .2-8 2q0 2-2 2c-1.8 0-2 .7-2 6s-.2 6-2 6-2 .7-2 12 .1 12 2 12c1.7 0 2 .7 2 4s.3 4 2 4q2 0 2 2c0 2 .7 2 134 2h134v-28c0-27.3 0-28 2-28 1.7 0 2-.7 2-4s.3-4 2-4 2-.7 2-4 .3-4 2-4 2-.7 2-4 .3-4 2-4q2 0 2-2t2-2 2-2 2-2 2-2 2-2 2-2 2-2 2-2c0-1.7.7-2 4-2s4-.3 4-2 .7-2 4-2 4-.3 4-2 .7-2 4-2 4-.3 4-2c0-2 .7-2 176-2s176 0 176 2c0 1.8.7 2 6 2s6 .2 6 2c0 1.7.7 2 4 2s4 .3 4 2 .7 2 4 2 4 .3 4 2q0 2 2 2t2 2 2 2 2 2 2 2 2 2 2 2 2 2 2 2 2 2 2 2c1.7 0 2 .7 2 4s.3 4 2 4 2 .7 2 4 .3 4 2 4c1.8 0 2 .7 2 8s.2 8 2 8c2 0 2 .7 2 22 0 22 0 22 16 22s16 0 16-4c0-3.3.3-4 2-4 2 0 2-.7 2-98s0-98-2-98c-1.8 0-2-.7-2-6s-.2-6-2-6q-2 0-2-2c0-1.7-.7-2-4-2s-4-.3-4-2c0-1.8-.7-2-6-2s-6-.2-6-2c0-2-.7-2-116-2s-116 0-116 2c0 1.8-.7 2-6 2s-6 .2-6 2q0 2-2 2t-2 2-2 2-2 2-2 2-2 2-2 2c-1.7 0-2 .7-2 4s-.3 4-2 4c-1.8 0-2 .7-2 6s-.2 6-2 6c-2 0-2 .7-2 24 0 24 0 24-10 24s-10 0-10-24c0-23.3 0-24 2-24 1.8 0 2-.7 2-6s.2-6 2-6c1.7 0 2-.7 2-4s.3-4 2-4q2 0 2-2t2-2c1.7 0 2-.7 2-4 0-4 0-4 4-4 3.3 0 4-.3 4-2q0-2 2-2t2-2 2-2 2-2c0-1.7.7-2 4-2s4-.3 4-2c0-1.8.7-2 8-2s8-.2 8-2c0-2 .7-2 36-2h36v-66c0-65.3 0-66-2-66-1.7 0-2-.7-2-4s-.3-4-2-4q-2 0-2-2c0-1.7-.7-2-4-2s-4-.3-4-2c0-1.8-.7-2-6-2s-6-.2-6-2c0-1.7-.7-2-4-2s-4-.3-4-2c0-1.8-.7-2-6-2s-6-.2-6-2-.7-2-6-2-6-.2-6-2-.7-2-6-2-6-.2-6-2-.7-2-6-2-6-.2-6-2-.7-2-6-2-6-.2-6-2c0-1.7-.7-2-4-2s-4-.3-4-2c0-1.8-.7-2-6-2-6 0-6 0-6-58 0-57.3 0-58-2-58-1.7 0-2-.7-2-4s-.3-4-2-4-2-.7-2-4c0-4 0-4-4-4-3.3 0-4-.3-4-2s-.7-2-4-2-4-.3-4-2-.7-2-4-2-4-.3-4-2c0-1.8-.7-2-6-2s-6-.2-6-2c0-1.7-.7-2-4-2s-4-.3-4-2c0-1.8-.7-2-6-2s-6-.2-6-2c0-1.7-.7-2-4-2s-4-.3-4-2-.7-2-4-2-4-.3-4-2c0-1.8-.7-2-6-2s-6-.2-6-2c0-1.7-.7-2-4-2s-4-.3-4-2c0-1.8-.7-2-6-2s-6-.2-6-2c0-1.7-.7-2-4-2s-4-.3-4-2c0-1.8-.7-2-6-2s-6-.2-6-2c0-1.7-.7-2-4-2s-4-.3-4-2c0-1.8-.7-2-6-2s-6-.2-6-2c0-2-.7-2-16-2s-16 0-16 2m360 284c0 1.7-.7 2-4 2s-4 .3-4 2q0 2-2 2t-2 2c0 1.7-.7 2-4 2-4 0-4 0-4 4 0 3.3-.3 4-2 4q-2 0-2 2t-2 2-2 2-2 2c-1.8 0-2 .7-2 6s-.2 6-2 6c-2 0-2 .7-2 24 0 24 0 24 22 24s22 0 22-18c0-17.3 0-18 2-18 1.7 0 2-.7 2-4s.3-4 2-4q2 0 2-2c0-1.8.7-2 8-2s8 .2 8 2q0 2 2 2t2 2 2 2 2 2 2 2c2 0 2 .7 2 18 0 18 0 18 22 18s22 0 22-18c0-17.3 0-18-2-18-1.8 0-2-.7-2-6s-.2-6-2-6c-1.7 0-2-.7-2-4s-.3-4-2-4q-2 0-2-2t-2-2c-1.7 0-2-.7-2-4s-.3-4-2-4q-2 0-2-2t-2-2-2-2c0-1.7-.7-2-4-2s-4-.3-4-2q0-2-2-2t-2-2c0-1.8-.7-2-6-2s-6-.2-6-2c0-2-.7-2-20-2s-20 0-20 2M396 522c0 1.7-.7 2-4 2s-4 .3-4 2-.7 2-4 2-4 .3-4 2q0 2-2 2t-2 2c0 1.7-.7 2-4 2-4 0-4 0-4 4 0 3.3-.3 4-2 4q-2 0-2 2t-2 2c-1.7 0-2 .7-2 4s-.3 4-2 4-2 .7-2 4-.3 4-2 4c-1.9 0-2 .7-2 14s-.1 14-2 14q-2 0-2 2t2 2c1.9 0 2 .7 2 10 0 10 0 10 18 10 17.3 0 18 0 18 2s.7 2 20 2 20 0 20-2c0-1.7.7-2 4-2s4-.3 4-2c0-2 .7-2 134-2s134 0 134 2c0 1.8.7 2 6 2s6 .2 6 2c0 2 .7 2 18 2s18 0 18-2c0-1.9.7-2 14-2s14-.1 14-2q0-2 2-2c2 0 2-.7 2-18s0-18-2-18c-1.8 0-2-.7-2-6s-.2-6-2-6-2-.7-2-6-.2-6-2-6q-2 0-2-2t-2-2c-1.7 0-2-.7-2-4s-.3-4-2-4q-2 0-2-2t-2-2-2-2c0-1.7-.7-2-4-2s-4-.3-4-2q0-2-2-2t-2-2c0-1.8-.7-2-6-2s-6-.2-6-2c0-2-.7-2-170-2s-170 0-170 2m-80 110c0 3.3-.3 4-2 4q-2 0-2 2t2 2c1.7 0 2 .7 2 4s.3 4 2 4q2 0 2 2t2 2c1.7 0 2 .7 2 4s.3 4 2 4q2 0 2 2t2 2c1.7 0 2 .7 2 4s.3 4 2 4c1.8 0 2 .7 2 6s.2 6 2 6c2 0 2 .7 2 16s0 16-2 16q-2 0-2-2t-2-2c-1.8 0-2-.7-2-6 0-6 0-6-4-6s-4 0-4 24c0 23.3 0 24-2 24-1.8 0-2 .7-2 8s-.2 8-2 8-2 .7-2 6 .2 6 2 6q2 0 2 2t2 2 2 2c0 2 .7 2 28 2s28 0 28-2c0-1.8.7-2 6-2s6-.2 6-2 .7-2 6-2 6-.2 6-2c0-2 .7-2 136-2s136 0 136-2q0-2 2-2c1.7 0 2-.7 2-4s.3-4 2-4 2-.7 2-4 .3-4 2-4c1.9 0 2-.7 2-10s.1-10 2-10c2 0 2-.7 2-18s0-18-2-18c-1.8 0-2-.7-2-8s-.2-8-2-8-2-.7-2-6-.2-6-2-6c-1.7 0-2-.7-2-4s-.3-4-2-4q-2 0-2-2t-2-2-2-2c0-1.7-.7-2-4-2s-4-.3-4-2c0-2-.7-2-114-2s-114 0-114-2q0-2 2-2t2-2-2-2c-1.7 0-2-.7-2-4 0-4 0-4-4-4-3.3 0-4-.3-4-2 0-2-.7-2-56-2-56 0-56 0-56 4m380-2q0 2-2 2c-1.8 0-2 .7-2 8s.2 8 2 8q2 0 2 2t2 2c1.7 0 2 .7 2 4s.3 4 2 4 2 .7 2 4 .3 4 2 4 2 .7 2 4 .3 4 2 4c1.8 0 2 .7 2 8s.2 8 2 8c2 0 2 .7 2 22s0 22-2 22c-1.8 0-2 .7-2 8s-.2 8-2 8-2 .7-2 8-.2 8-2 8c-1.7 0-2 .7-2 4 0 4 0 4 82 4 81.3 0 82 0 82-2 0-1.8.7-2 6-2s6-.2 6-2q0-2 2-2t2-2 2-2 2-2 2-2c1.7 0 2-.7 2-4s.3-4 2-4c1.8 0 2-.7 2-6s.2-6 2-6 2-.7 2-14c0-13.6 0-13.9 2.3-14.2 2-.3 2.2-1 2.5-6.4.3-6.1.3-6.1-2.3-5.7-2.5.5-2.5.5-2.5-11.6 0-11.4-.1-12.1-2-12.1-1.7 0-2-.7-2-4s-.3-4-2-4-2-.7-2-4-.3-4-2-4q-2 0-2-2t-2-2-2-2-2-2-2-2c0-2-.7-2-30-2-30 0-30 0-30-4 0-3.3-.3-4-2-4s-2-.7-2-4-.3-4-2-4q-2 0-2-2c0-2-.7-2-58-2s-58 0-58 2M40 646c0 1.8-.7 2-6 2s-6 .2-6 2-.7 2-6 2-6 .2-6 2q0 2-2 2c-1.7 0-2 .7-2 4s-.3 4-2 4-2 .7-2 4-.3 4-2 4c-2 0-2 .7-2 14 0 11.8-.2 14-1.5 14-1.2 0-1.5 1.3-1.5 6s.3 6 1.5 6c1.3 0 1.5 2.4 1.5 16 0 15.3 0 16 2 16 1.8 0 2 .7 2 6s.2 6 2 6q2 0 2 2t2 2c1.7 0 2 .7 2 4s.3 4 2 4q2 0 2 2c0 1.7.7 2 4 2s4 .3 4 2c0 2 .7 2 132 2s132 0 132-2q0-2 2-2t2-2 2-2c1.7 0 2-.7 2-4s.3-4 2-4c1.9 0 2-.7 2-10s.1-10 2-10c2 0 2-.7 2-26s0-26-2-26c-1.8 0-2-.7-2-8s-.2-8-2-8c-1.7 0-2-.7-2-4s-.3-4-2-4-2-.7-2-4-.3-4-2-4q-2 0-2-2c0-1.7-.7-2-4-2s-4-.3-4-2c0-2-.7-2-120-2s-120 0-120-2q0-2-2-2t-2 2"/><path fill="#eef4ef" fill-rule="evenodd" d="M204 66q0 2-2 2t-2 2 2 2 2-2 2-2 2-2-2-2-2 2m-8 16c0 5.3.2 6 2 6s2-.7 2-6-.2-6-2-6-2 .7-2 6m336 14c0 19.3 0 20 2 20s2-.7 2-20 0-20-2-20-2 .7-2 20m-180-2c0 1.8-.7 2-6 2s-6 .2-6 2-.7 2-6 2c-6 0-6 0-6 4 0 3.3-.3 4-2 4-2 0-2 .7-2 26s0 26 2 26q2 0 2 2t2 2 2-2c0-1.8.7-2 8-2s8-.2 8-2 .7-2 6-2c6 0 6 0 6-32s0-32-4-32c-3.3 0-4 .3-4 2m-72 16c0 1.8-.7 2-8 2s-8 .2-8 2c0 1.7-.7 2-4 2s-4 .3-4 2q0 2-2 2c-2 0-2 .7-2 30 0 30 0 30 8 30 7.3 0 8-.2 8-2s.7-2 6-2 6-.2 6-2q0-2 2-2c2 0 2-.7 2-32s0-32-2-32q-2 0-2 2m164 30c0 32 0 32 8 32 7.3 0 8 .2 8 2s.7 2 8 2c8 0 8 0 8-30 0-29.3 0-30-2-30q-2 0-2-2c0-1.8-.7-2-8-2s-8-.2-8-2-.7-2-6-2c-6 0-6 0-6 32m-88 58c0 1.9-.7 2-10 2s-10 .1-10 2c0 1.7-.7 2-4 2s-4 .3-4 2q0 2-2 2c-2 0-2 .7-2 32 0 32 0 32 10 32 9.3 0 10-.1 10-2s.7-2 8-2c8 0 8 0 8-8 0-7.3.2-8 2-8 2 0 2-.7 2-24s0-24-2-24c-1.7 0-2-.7-2-4s-.3-4-2-4q-2 0-2 2m-88 20c0 1.8-.7 2-6 2s-6 .2-6 2q0 2-2 2c-2 0-2 .7-2 32 0 32 0 32 4 32 3.3 0 4-.3 4-2 0-1.9.7-2 10-2s10-.1 10-2q0-2 2-2t2-2 2-2c2 0 2-.7 2-30 0-30 0-30-10-30-9.3 0-10 .1-10 2m176 30c0 32 0 32 10 32 9.3 0 10 .1 10 2s.7 2 6 2c6 0 6 0 6-32s0-32-6-32c-5.3 0-6-.2-6-2s-.7-2-10-2c-10 0-10 0-10 32m196-18q0 2 2 2t2 2 2 2 2-2-2-2-2-2-2-2-2 2M96 374c0 133.3 0 134 2 134s2-.7 2-134 0-134-2-134-2 .7-2 134m468-74c0 24 0 24 10 24 9.3 0 10 .1 10 2s.7 2 6 2c6 0 6 0 6-22 0-21.3 0-22-2-22q-2 0-2-2c0-1.8-.7-2-6-2s-6-.2-6-2-.7-2-8-2c-8 0-8 0-8 24m208-2q0 2 2 2t2 2 2 2 2 2 2 2 2-2-2-2-2-2-2-2-2-2-2-2-2 2m-432 12c0 1.8-.7 2-6 2s-6 .2-6 2q0 2-2 2c-2 0-2 .7-2 26s0 26 2 26q2 0 2 2c0 1.7.7 2 4 2s4-.3 4-2c0-1.9.7-2 12-2 12 0 12 0 12-30s0-30-10-30c-9.3 0-10 .1-10 2m-64 8c0 1.9-.7 2-10 2s-10 .1-10 2q0 2-2 2c-2 0-2 .7-2 28 0 28 0 28 14 28 13.3 0 14-.1 14-2q0-2 2-2t2-2 2-2c2 0 2-.7 2-26s0-26-2-26q-2 0-2-2c0-1.7-.7-2-4-2s-4 .3-4 2m168 26c0 28 0 28 6 28 5.3 0 6 .2 6 2s.7 2 10 2c10 0 10 0 10-28s0-28-6-28c-5.3 0-6-.2-6-2s-.7-2-10-2c-10 0-10 0-10 28m384 50q0 2 2 2t2 2 2 2 2-2-2-2-2-2-2-2-2 2m-500 16q0 2-2 2c-2 0-2 .7-2 26s0 26 2 26q2 0 2 2c0 1.7.7 2 4 2s4-.3 4-2c0-1.9.7-2 12-2 12 0 12 0 12-28s0-28-16-28c-15.3 0-16 0-16 2m-76 36c0 30 0 30 6 30 5.3 0 6-.2 6-2s.7-2 10-2c10 0 10 0 10-6 0-5.3.2-6 2-6 2 0 2-.7 2-20s0-20-2-20q-2 0-2-2c0-2-.7-2-16-2-16 0-16 0-16 30m444 10c0 16 0 16 18 16s18 0 18-16 0-16-18-16-18 0-18 16m-500 34c0 9.3.1 10 2 10s2-.7 2-10-.1-10-2-10-2 .7-2 10m60 28q0 2-2 2c-1.8 0-2 .7-2 6 0 6 0 6 16 6 15.3 0 16 0 16-2q0-2 2-2c1.7 0 2-.7 2-4s-.3-4-2-4q-2 0-2-2c0-1.9-.7-2-14-2s-14 .1-14 2m580 48c0 37.3 0 38 2 38s2-.7 2-38 0-38-2-38-2 .7-2 38m-432-32c0 1.8.7 2 6 2s6-.2 6-2-.7-2-6-2-6 .2-6 2m352 0q0 2 2 2t2 2 2 2 2 2 2 2 2-2-2-2-2-2-2-2-2-2-2-2-2 2m-560 10c0 3.3.3 4 2 4s2-.7 2-4-.3-4-2-4-2 .7-2 4m-68 2c0 1.7.7 2 4 2s4-.3 4-2-.7-2-4-2-4 .3-4 2m592 8c0 1.7.7 2 4 2s4 .3 4 2 .7 2 4 2c4 0 4 0 4 4 0 3.3.3 4 2 4q2 0 2 2t2 2c1.7 0 2-.7 2-4s-.3-4-2-4-2-.7-2-4-.3-4-2-4q-2 0-2-2c0-1.8-.7-2-8-2s-8 .2-8 2m-564 4c0 2 .7 2 20 2s20 0 20-2-.7-2-20-2-20 0-20 2m-92 4q0 2-2 2t-2 2 2 2 2-2 2-2 2-2-2-2-2 2m320 0q0 2-2 2t-2 2-2 2-2 2 2 2 2-2 2-2 2-2 2-2 2-2-2-2-2 2m4 56c0 1.7.7 2 4 2s4-.3 4-2-.7-2-4-2-4 .3-4 2m352 0c0 1.8.7 2 6 2s6-.2 6-2-.7-2-6-2-6 .2-6 2M48 650c0 2 .7 2 74 2s74 0 74-2-.7-2-74-2-74 0-74 2m204 0c0 2 .7 2 16 2s16 0 16-2-.7-2-16-2-16 0-16 2m188 0c0 2 .7 2 100 2s100 0 100-2-.7-2-100-2-100 0-100 2m-424 4q0 2-2 2t-2 2 2 2 2-2 2-2 2-2-2-2-2 2m16 28q0 2 2 2t2 2 2 2 2 2 2 2c1.7 0 2 .7 2 4s.3 4 2 4c1.8 0 2 .7 2 6s.2 6 2 6c2 0 2 .7 2 18s0 18-2 18c-1.7 0-2 .7-2 4s.3 4 2 4 2-.7 2-4 .3-4 2-4c2 0 2-.7 2-22s0-22-2-22c-1.7 0-2-.7-2-4s-.3-4-2-4-2-.7-2-4-.3-4-2-4q-2 0-2-2c0-1.7-.7-2-4-2s-4-.3-4-2q0-2-2-2t-2 2m656 18c0 3.3.3 4 2 4s2-.7 2-4-.3-4-2-4-2 .7-2 4M0 706c0 5.3.2 6 2 6s2-.7 2-6-.2-6-2-6-2 .7-2 6m900 0c0 5.3.2 6 2 6s2-.7 2-6-.2-6-2-6-2 .7-2 6M16 766q0 2 2 2t2 2 2 2 2-2-2-2-2-2-2-2-2 2"/><path fill="#69be28" fill-rule="evenodd" d="M420 522c0 1.9-.7 2-10 2s-10 .1-10 2-.7 2-6 2-6 .2-6 2c0 1.7-.7 2-4 2s-4 .3-4 2q0 2-2 2t-2 2-2 2-2 2-2 2-2 2-2 2c-1.7 0-2 .7-2 4s-.3 4-2 4c-1.8 0-2 .7-2 6s-.2 6-2 6c-2 0-2 .7-2 22 0 22 0 22 6 22 5.3 0 6 .2 6 2s.7 2 6 2 6-.2 6-2c0-2 .7-2 16-2 16 0 16 0 16-16 0-15.3 0-16 2-16q2 0 2-2c0-2 .7-2 150-2 150 0 150 0 150 4s0 4 4 4 4 0 4 4c0 3.3-.3 4-2 4s-2 .7-2 4-.3 4-2 4c-1.8 0-2 .7-2 6 0 6 0 6 30 6s30 0 30-4c0-3.3.3-4 2-4 1.9 0 2-.7 2-12s-.1-12-2-12-2-.7-2-8-.2-8-2-8c-1.7 0-2-.7-2-4s-.3-4-2-4-2-.7-2-4-.3-4-2-4q-2 0-2-2t-2-2-2-2-2-2-2-2-2-2-2-2c0-1.7-.7-2-4-2s-4-.3-4-2c0-1.8-.7-2-6-2s-6-.2-6-2c0-2-.7-2-32-2s-32 0-32-2q0-2-2-2t-2 2c0 2-.7 2-50 2s-50 0-50-2-.7-2-72-2-72 0-72 2m-20 12c0 1.8.7 2 8 2s8 .2 8 2q0 2-2 2t-2 2 2 2 2-2 2-2 2-2-2-2-2-2c0-1.8-.7-2-8-2s-8 .2-8 2m-8 4q0 2-2 2t-2 2 2 2 2-2 2-2 2-2-2-2-2 2m4 12q0 2-2 2t-2 2 2 2 2-2 2-2 2-2-2-2-2 2m-20 4q0 2-2 2t-2 2 2 2 2-2 2-2 2-2-2-2-2 2m344 0q0 2 2 2t2 2c0 1.7.7 2 4 2s4 .3 4 2q0 2 2 2t2 2 2 2 2 2 2 2c1.7 0 2-.7 2-4s-.3-4-2-4-2-.7-2-4-.3-4-2-4q-2 0-2-2c0-1.8-.7-2-8-2s-8 .2-8 2m-336 8q0 2-2 2t-2 2-2 2-2 2 2 2 2-2 2-2 2-2 2-2 2-2-2-2-2 2m32 8c0 2 .7 2 146 2s146 0 146-2-.7-2-146-2-146 0-146 2m-68 94c0 3.3-.3 4-2 4-2 0-2 .7-2 24s0 24-2 24q-2 0-2 2c0 1.7-.7 2-4 2s-4-.3-4-2q0-2-2-2c-2 0-2 .7-2 22 0 22 0 22 28 22 27.3 0 28 0 28-2q0-2 2-2t2-2 2-2 2-2 2-2 2-2 2-2 2-2 2-2c1.8 0 2-.7 2-6s.2-6 2-6 2-.7 2-10 .1-10 2-10c2 0 2-.7 2-22s0-22-2-22q-2 0-2-2c0-2-.7-2-30-2-30 0-30 0-30 4m384 2c0 6 0 6 4 6 3.3 0 4 .3 4 2 0 1.9.7 2 10 2s10-.1 10-2 .7-2 10-2 10-.1 10-2 .7-2 6-2c6 0 6 0 6-4s0-4-30-4-30 0-30 6M28 680c0 3.3.3 4 2 4q2 0 2 2t2 2c1.7 0 2 .7 2 4s.3 4 2 4q2 0 2 2t2 2c1.8 0 2 .7 2 6s.2 6 2 6c2 0 2 .7 2 16s0 16-2 16c-1.9 0-2 .7-2 10 0 10 0 10 4 10 3.3 0 4-.3 4-2q0-2 2-2c1.8 0 2-.7 2-6s.2-6 2-6c2 0 2-.7 2-22s0-22-2-22c-1.8 0-2-.7-2-6s-.2-6-2-6q-2 0-2-2t-2-2c-1.7 0-2-.7-2-4 0-4 0-4-6-4-5.3 0-6-.2-6-2 0-1.7-.7-2-4-2-4 0-4 0-4 4m4 2q0 2 2 2t2 2 2 2 2 2 2 2c1.7 0 2 .7 2 4s.3 4 2 4c1.8 0 2 .7 2 6s.2 6 2 6c2 0 2 .7 2 16s0 16-2 16c-1.8 0-2 .7-2 6s.2 6 2 6c1.7 0 2-.7 2-4s.3-4 2-4c2 0 2-.7 2-22s0-22-2-22c-1.8 0-2-.7-2-6s-.2-6-2-6q-2 0-2-2t-2-2-2-2c0-1.7-.7-2-4-2s-4-.3-4-2q0-2-2-2t-2 2"/></svg>