<svg xmlns="http://www.w3.org/2000/svg" fill="none" viewBox="0 0 848 880"><path fill="#024" fill-rule="evenodd" d="M544 2c0 2-.7 2-18 2s-18 0-18 2c0 1.9-.7 2-12 2s-12 .1-12 2-.7 2-10 2-10 .1-10 2-.7 2-8 2-8 .2-8 2-.7 2-8 2-8 .2-8 2-.7 2-6 2-6 .2-6 2c0 1.7-.7 2-4 2s-4 .3-4 2-.7 2-4 2-4 .3-4 2-.7 2-4 2-4 .3-4 2-.7 2-4 2-4 .3-4 2q0 2-2 2t-2 2-2 2-2 2-2 2-2 2-2 2c-1.7 0-2 .7-2 4s-.3 4-2 4c-2 0-2 .7-2 44s0 44 2 44c1.9 0 2 .7 2 12s.1 12 2 12 2 .7 2 6 .2 6 2 6q2 0 2 2t2 2c1.7 0 2 .7 2 4s.3 4 2 4q2 0 2 2t2 2 2 2c0 1.7.7 2 4 2s4 .3 4 2q0 2 2 2t2 2c0 1.7.7 2 4 2s4 .3 4 2 .7 2 4 2 4 .3 4 2 .7 2 4 2 4 .3 4 2c0 1.8.7 2 6 2s6 .2 6 2 .7 2 6 2 6 .2 6 2 .7 2 8 2c8 0 8 0 8 66 0 65.3 0 66 2 66s2 .7 2 18 0 18 2 18c1.7 0 2 .7 2 4s.3 4 2 4c1.8 0 2 .7 2 6s.2 6 2 6 2 .7 2 6 .2 6 2 6c1.7 0 2 .7 2 4s.3 4 2 4 2 .7 2 4 .3 4 2 4 2 .7 2 4 .3 4 2 4q2 0 2 2t2 2c1.7 0 2 .7 2 4s.3 4 2 4q2 0 2 2c0 1.7-.7 2-4 2s-4-.3-4-2q0-2-2-2t-2-2-2-2-2-2-2-2-2-2-2-2-2-2-2-2c-1.7 0-2-.7-2-4s-.3-4-2-4-2-.7-2-4-.3-4-2-4-2-.7-2-4-.3-4-2-4q-2 0-2-2t-2-2c-1.8 0-2-.7-2-6s-.2-6-2-6-2-.7-2-10-.1-10-2-10q-2 0-2-2t2-2 2-2-2-2c-1.7 0-2-.7-2-4 0-4 0-4-10-4-9.3 0-10 .1-10 2s-.7 2-6 2-6 .2-6 2-.7 2-6 2-6 .2-6 2-.7 2-6 2-6 .2-6 2c0 1.7-.7 2-4 2s-4 .3-4 2-.7 2-4 2-4 .3-4 2q0 2-2 2t-2 2c0 1.7-.7 2-4 2s-4 .3-4 2q0 2-2 2t-2 2c0 1.7-.7 2-4 2s-4 .3-4 2q0 2-2 2t-2 2-2 2-2 2-2 2-2 2-2 2-2 2-2 2-2 2-2 2c-1.7 0-2 .7-2 4s-.3 4-2 4q-2 0-2 2t-2 2-2 2-2 2c-1.7 0-2 .7-2 4s-.3 4-2 4-2 .7-2 4-.3 4-2 4-2 .7-2 4-.3 4-2 4-2 .7-2 4-.3 4-2 4c-1.8 0-2 .7-2 6s-.2 6-2 6-2 .7-2 8-.2 8-2 8-2 .7-2 14-.1 14-2 14c-2 0-2 .7-2 52s0 52 2 52c1.7 0 2 .7 2 4 0 4 0 4 14 4 13.3 0 14 .1 14 2 0 2 .7 2 80 2s80 0 80-2q0-2 2-2c2 0 2-.7 2-32s0-32 2-32c1.9 0 2-.7 2-10s.1-10 2-10q2 0 2-2t2-2 2-2c0-2 .7-2 20-2 20 0 20 0 20-6 0-5.3-.2-6-2-6-1.7 0-2-.7-2-4s-.3-4-2-4-2-.7-2-4-.3-4-2-4-2-.7-2-4-.3-4-2-4c-1.8 0-2-.7-2-6s.2-6 2-6q2 0 2 2t2 2 2 2 2 2 2 2 2 2 2 2c0 1.7.7 2 4 2s4 .3 4 2c0 1.8.7 2 6 2s6 .2 6 2c0 1.7.7 2 4 2s4 .3 4 2c0 1.8.7 2 8 2s8 .2 8 2 .7 2 8 2 8 .2 8 2c0 2 .7 2 46 2s46 0 46-2c0-1.8.7-2 8-2s8-.2 8-2 .7-2 6-2 6-.2 6-2 .7-2 6-2 6-.2 6-2c0-1.7.7-2 4-2s4-.3 4-2 .7-2 4-2 4-.3 4-2 .7-2 4-2 4-.3 4-2q0-2 2-2t2-2 2-2 2-2 2-2 2-2c0-1.7.7-2 4-2 4 0 4 0 4-4 0-3.3.3-4 2-4q2 0 2-2t2-2 2-2 2-2 2-2 2-2c1.7 0 2-.7 2-4s.3-4 2-4 2-.7 2-4 .3-4 2-4 2-.7 2-4 .3-4 2-4c1.8 0 2-.7 2-6s.2-6 2-6 2-.7 2-10 .1-10 2-10c2 0 2-.7 2-50s0-50-2-50c-1.8 0-2-.7-2-8s-.2-8-2-8-2-.7-2-6-.2-6-2-6c-1.7 0-2-.7-2-4s-.3-4-2-4-2-.7-2-4-.3-4-2-4q-2 0-2-2t-2-2-2-2-2-2-2-2c0-1.7-.7-2-4-2s-4-.3-4-2q0-2-2-2t-2-2c0-1.7-.7-2-4-2s-4-.3-4-2c0-1.8-.7-2-6-2s-6-.2-6-2-.7-2-8-2-8-.2-8-2-.7-2-10-2c-10 0-10 0-10-4s0-4 12-4c11.3 0 12-.1 12-2s.7-2 8-2 8-.2 8-2 .7-2 8-2 8-.2 8-2 .7-2 6-2 6-.2 6-2 .7-2 6-2 6-.2 6-2c0-1.7.7-2 4-2s4-.3 4-2 .7-2 4-2 4-.3 4-2 .7-2 4-2 4-.3 4-2q0-2 2-2t2-2c0-1.7.7-2 4-2s4-.3 4-2q0-2 2-2c1.7 0 2-.7 2-4s.3-4 2-4c1.8 0 2-.7 2-6s.2-6 2-6c2 0 2-.7 2-36s0-36-2-36c-1.9 0-2-.7-2-10s.1-10 2-10 2-.7 2-10-.1-10-2-10-2-.7-2-10-.1-10-2-10c-1.7 0-2-.7-2-4s-.3-4-2-4q-2 0-2-2t-2-2-2-2-2-2-2-2c0-1.7-.7-2-4-2s-4-.3-4-2-.7-2-4-2-4-.3-4-2-.7-2-4-2-4-.3-4-2-.7-2-4-2-4-.3-4-2c0-1.8-.7-2-6-2s-6-.2-6-2-.7-2-8-2-8-.2-8-2-.7-2-8-2-8-.2-8-2-.7-2-10-2-10-.1-10-2-.7-2-10-2-10-.1-10-2c0-2-.7-2-18-2s-18 0-18-2-.7-2-66-2-66 0-66 2M68 46c0 2-.7 2-18 2s-18 0-18 2c0 1.8-.7 2-6 2s-6 .2-6 2c0 1.7-.7 2-4 2s-4 .3-4 2q0 2-2 2c-1.7 0-2 .7-2 4s-.3 4-2 4c-2 0-2 .7-2 38s0 38 2 38c1.7 0 2 .7 2 4s.3 4 2 4 2 .7 2 4 .3 4 2 4q2 0 2 2c0 1.9.7 2 10 2s10 .1 10 2c0 2 .7 2 68 2 68 0 68 0 68 6 0 5.3-.2 6-2 6q-2 0-2 2t-2 2-2 2c0 2-.7 2-64 2H36v82c0 81.3 0 82 2 82 1.9 0 2 .7 2 10 0 10 0 10 94 10 93.3 0 94 0 94 2q0 2 2 2t2-2c0-1.8.7-2 6-2s6-.2 6-2q0-2 2-2c2 0 2-.7 2-16s0-16-2-16-2-.7-2-84c0-84 0-84 10-84 9.3 0 10-.1 10-2s.7-2 6-2 6-.2 6-2q0-2 2-2t2-2 2-2c1.8 0 2-.7 2-6s.2-6 2-6c2 0 2-.7 2-28s0-28-2-28c-1.8 0-2-.7-2-6s-.2-6-2-6-2-.7-2-6-.2-6-2-6q-2 0-2-2t-2-2-2-2-2-2-2-2c0-1.7-.7-2-4-2s-4-.3-4-2c0-2-.7-2-66-2s-66 0-66-2-.7-2-30-2-30 0-30 2M24 390c0 1.7-.7 2-4 2s-4 .3-4 2-.7 2-4 2c-4 0-4 0-4 4 0 3.3-.3 4-2 4s-2 .7-2 4-.3 4-2 4c-2 0-2 .7-2 40s0 40 2 40c1.8 0 2 .7 2 6s.2 6 2 6c1.7 0 2 .7 2 4s.3 4 2 4q2 0 2 2c0 1.7.7 2 4 2s4 .3 4 2c0 1.8.7 2 6 2 6 0 6 0 6 40 0 39.3 0 40 2 40 1.9 0 2 .7 2 12s.1 12 2 12 2 .7 2 8 .2 8 2 8 2 .7 2 6 .2 6 2 6 2 .7 2 6 .2 6 2 6 2 .7 2 6 .2 6 2 6c1.7 0 2 .7 2 4s.3 4 2 4 2 .7 2 4 .3 4 2 4 2 .7 2 4 .3 4 2 4q2 0 2 2t2 2c1.7 0 2 .7 2 4s.3 4 2 4q2 0 2 2t2 2c1.7 0 2 .7 2 4s.3 4 2 4q2 0 2 2t2 2 2 2 2 2 2 2 2 2 2 2 2 2 2 2 2 2 2 2 2 2 2 2 2 2 2 2 2 2 2 2c0 1.7.7 2 4 2s4 .3 4 2q0 2 2 2t2 2 2 2 2 2c0 1.7.7 2 4 2s4 .3 4 2 .7 2 4 2 4 .3 4 2q0 2 2 2t2 2c0 1.7.7 2 4 2s4 .3 4 2c0 1.8.7 2 6 2s6 .2 6 2c0 1.7.7 2 4 2s4 .3 4 2c0 1.8.7 2 6 2s6 .2 6 2 .7 2 6 2 6 .2 6 2 .7 2 8 2 8 .2 8 2 .7 2 12 2 12 .1 12 2c0 2 .7 2 18 2s18 0 18 2 .7 2 16 2c16 0 16 0 16 14 0 13.3.1 14 2 14s2 .7 2 6 .2 6 2 6c1.7 0 2 .7 2 4s.3 4 2 4q2 0 2 2t2 2 2 2c0 1.7.7 2 4 2s4 .3 4 2c0 2 .7 2 48 2s48 0 48-2c0-1.7.7-2 4-2 4 0 4 0 4-4 0-3.3.3-4 2-4s2-.7 2-4 .3-4 2-4c1.9 0 2-.7 2-10s-.1-10-2-10q-2 0-2-2c0-2-.7-2-46-2s-46 0-46-2q0-2-2-2c-1.8 0-2-.7-2-6 0-6 0-6 46-6 45.3 0 46 0 46-2 0-1.9.7-2 12-2s12 .1 12 2q0 2 2 2t2-2c0-1.7.7-2 4-2 4 0 4 0 4 28 0 27.3 0 28 2 28 1.7 0 2 .7 2 4 0 4 0 4 4 4 3.3 0 4 .3 4 2 0 2 .7 2 32 2s32 0 32-2c0-1.7.7-2 4-2s4-.3 4-2q0-2 2-2c2 0 2-.7 2-46s0-46-2-46-2-.7-2-46 0-46-2-46q-2 0-2-2t-2-2-2-2c0-1.9-.7-2-10-2s-10-.1-10-2c0-2-.7-2-18-2s-18 0-18 2q0 2-2 2t-2-2c0-1.8-.7-2-8-2s-8 .2-8 2q0 2-2 2c-2 0-2 .7-2 40 0 40 0 40-8 40-7.3 0-8-.2-8-2q0-2-2-2t-2-2-2-2c-1.8 0-2-.7-2-6s-.2-6-2-6c-2 0-2-.7-2-30v-30h-66c-65.3 0-66 0-66-2 0-1.8-.7-2-8-2s-8-.2-8-2q0-2-2-2t-2-2-2-2-2-2-2-2-2-2-2-2c-1.9 0-2-.7-2-14s-.1-14-2-14-2-.7-2-14 .1-14 2-14c1.7 0 2-.7 2-4s-.3-4-2-4c-1.8 0-2-.7-2-6 0-6 0-6-14-6-13.3 0-14-.1-14-2 0-1.7-.7-2-4-2s-4-.3-4-2q0-2-2-2t-2-2-2-2c-1.7 0-2-.7-2-4s-.3-4-2-4c-2 0-2-.7-2-22 0-22 0-22 16-22 15.3 0 16 0 16-2 0-1.7.7-2 4-2s4-.3 4-2q0-2 2-2t2-2-2-2-2-2 2-2c2 0 2-.7 2-38s0-38-2-38c-1.9 0-2-.7-2-14s-.1-14-2-14q-2 0-2-2t-2-2-2-2c0-1.8-.7-2-6-2s-6-.2-6-2c0-2-.7-2-16-2s-16 0-16 2c0 1.8-.7 2-6 2s-6-.2-6-2c0-2-.7-2-62-2s-62 0-62 2c0 1.8-.7 2-6 2s-6-.2-6-2c0-2-.7-2-22-2s-22 0-22 2"/><path fill="#eef4ef" fill-rule="evenodd" d="M544 2c0 1.7.7 2 4 2s4-.3 4-2-.7-2-4-2-4 .3-4 2m124 0c0 1.7.7 2 4 2s4-.3 4-2-.7-2-4-2-4 .3-4 2m36 4c0 1.7.7 2 4 2s4-.3 4-2-.7-2-4-2-4 .3-4 2M556 32c0 3.3-.3 4-2 4-1.9 0-2 .7-2 10s.1 10 2 10 2 .7 2 6c0 6 0 6 6 6 5.3 0 6-.2 6-2q0-2 2-2t2 2 2 2 2-2c0-2 .7-2 28-2s28 0 28 2 .7 2 14 2c14 0 14 0 14-18 0-17.3 0-18-2-18q-2 0-2-2c0-2-.7-2-50-2-50 0-50 0-50 4m-40 2c0 1.9-.7 2-12 2s-12 .1-12 2-.7 2-8 2-8 .2-8 2-.7 2-6 2-6 .2-6 2-.7 2-6 2-6 .2-6 2c0 1.7-.7 2-4 2s-4 .3-4 2-.7 2-4 2-4 .3-4 2q0 2-2 2c-1.8 0-2 .7-2 6s.2 6 2 6q2 0 2 2c0 1.8.7 2 6 2s6 .2 6 2 .7 2 8 2 8-.2 8-2 .7-2 12-2 12-.1 12-2c0-2 .7-2 18-2 18 0 18 0 18-10 0-9.3.1-10 2-10s2-.7 2-10c0-10 0-10-6-10-5.3 0-6 .2-6 2m172 18c0 20 0 20 18 20 17.3 0 18 0 18 2s.7 2 16 2 16 0 16 2c0 1.8.7 2 6 2s6-.2 6-2 .7-2 6-2 6-.2 6-2q0-2 2-2c1.8 0 2-.7 2-6s-.2-6-2-6q-2 0-2-2c0-1.7-.7-2-4-2s-4-.3-4-2-.7-2-4-2-4-.3-4-2-.7-2-4-2-4-.3-4-2c0-1.8-.7-2-8-2s-8-.2-8-2-.7-2-8-2-8-.2-8-2-.7-2-10-2-10-.1-10-2-.7-2-8-2c-8 0-8 0-8 20M68 46c0 2 .7 2 30 2s30 0 30-2-.7-2-30-2-30 0-30 2m764 4q0 2 2 2t2 2 2 2 2-2-2-2-2-2-2-2-2 2M12 58q0 2-2 2t-2 2 2 2 2-2 2-2 2-2-2-2-2 2m356 20c0 13.3.1 14 2 14s2-.7 2-14-.1-14-2-14-2 .7-2 14m476 12c0 9.3.1 10 2 10s2-.7 2-10-.1-10-2-10-2 .7-2 10m-436 0q0 2 2 2t2 2c0 1.7.7 2 4 2s4 .3 4 2q0 2 2 2t2 2c0 1.7.7 2 4 2s4 .3 4 2c0 1.8.7 2 6 2s6 .2 6 2 .7 2 6 2 6 .2 6 2 .7 2 8 2 8 .2 8 2 .7 2 10 2 10 .1 10 2c0 2 .7 2 14 2s14 0 14 2 .7 2 24 2 24 0 24 2 .7 2 42 2 42 0 42-2 .7-2 22-2 22 0 22-2c0-1.9.7-2 12-2s12-.1 12-2 .7-2 10-2 10-.1 10-2 .7-2 8-2 8-.2 8-2 .7-2 8-2 8-.2 8-2c0-1.7.7-2 4-2s4-.3 4-2c0-1.8.7-2 6-2s6-.2 6-2q0-2 2-2t2-2c0-1.7.7-2 4-2s4-.3 4-2-.7-2-4-2-4 .3-4 2c0 1.8-.7 2-6 2s-6 .2-6 2-.7 2-8 2-8 .2-8 2-.7 2-12 2-12 .1-12 2c0 2-.7 2-16 2s-16 0-16 2-.7 2-26 2-26 0-26 2-.7 2-52 2-52 0-52-2-.7-2-26-2-26 0-26-2-.7-2-16-2-16 0-16-2c0-1.9-.7-2-10-2s-10-.1-10-2-.7-2-8-2-8-.2-8-2-.7-2-6-2-6-.2-6-2c0-1.7-.7-2-4-2s-4-.3-4-2-.7-2-4-2-4 .3-4 2m436 40c0 9.3.1 10 2 10s2-.7 2-10-.1-10-2-10-2 .7-2 10M36 166c0 2 .7 2 68 2s68 0 68-2-.7-2-68-2-68 0-68 2m348 32q0 2 2 2t2 2 2 2 2 2 2 2 2-2-2-2-2-2-2-2-2-2-2-2-2 2m452 12q0 2-2 2t-2 2 2 2 2-2 2-2 2-2-2-2-2 2M36 262c0 5.3.2 6 2 6s2-.7 2-6-.2-6-2-6-2 .7-2 6m528 8c0 13.3.1 14 2 14s2 .7 2 6c0 6 0 6 4 6 3.3 0 4 .3 4 2 0 1.8.7 2 8 2s8 .2 8 2c0 2 .7 2 32 2s32 0 32-2c0-1.8.7-2 8-2s8-.2 8-2c0-1.7.7-2 4-2s4-.3 4-2q0-2 2-2c1.7 0 2-.7 2-4s.3-4 2-4c1.9 0 2-.7 2-10s.1-10 2-10q2 0 2-2c0-1.9.7-2 10-2s10-.1 10-2c0-2-.7-2-26-2s-26 0-26 2c0 1.9-.7 2-10 2s-10-.1-10-2q0-2-2-2t-2 2c0 2-.7 2-22 2s-22 0-22-2c0-1.9-.7-2-14-2-14 0-14 0-14 14M36 302c0 5.3.2 6 2 6s2-.7 2-6-.2-6-2-6-2 .7-2 6m0 40c0 9.3.1 10 2 10s2-.7 2-10-.1-10-2-10-2 .7-2 10m208 10c0 15.3 0 16 2 16s2-.7 2-16 0-16-2-16-2 .7-2 16m224 12c0 3.3.3 4 2 4s2-.7 2-4-.3-4-2-4-2 .7-2 4M24 390c0 2 .7 2 22 2s22 0 22-2-.7-2-22-2-22 0-22 2m56 0c0 1.8.7 2 6 2s6-.2 6-2-.7-2-6-2-6 .2-6 2m16 0c0 2 .7 2 54 2s54 0 54-2-.7-2-54-2-54 0-54 2m120 0c0 1.9.7 2 14 2s14-.1 14-2-.7-2-14-2-14 .1-14 2m256 10c0 3.3.3 4 2 4s2-.7 2-4-.3-4-2-4-2 .7-2 4m-204 36c0 7.3.2 8 2 8s2-.7 2-8-.2-8-2-8-2 .7-2 8m0 74q0 2-2 2t-2 2 2 2 2-2 2-2 2-2-2-2-2 2m28 40c0 5.3.2 6 2 6s2-.7 2-6-.2-6-2-6-2 .7-2 6m220 12c0 1.9.7 2 14 2s14-.1 14-2-.7-2-14-2-14 .1-14 2m-240 38c0 3.3.3 4 2 4s2-.7 2-4-.3-4-2-4-2 .7-2 4m0 40c0 7.3.2 8 2 8s2-.7 2-8-.2-8-2-8-2 .7-2 8m52 18c0 2 .7 2 80 2s80 0 80-2-.7-2-80-2-80 0-80 2m148 20q0 2-2 2c-1.9 0-2 .7-2 10s.1 10 2 10 2-.7 2-10 .1-10 2-10q2 0 2-2t-2-2-2 2m-4 70c0 11.3.1 12 2 12s2-.7 2-12-.1-12-2-12-2 .7-2 12m-28-4c0 3.3.3 4 2 4s2-.7 2-4-.3-4-2-4-2 .7-2 4m116 42c0 5.3.2 6 2 6s2-.7 2-6-.2-6-2-6-2 .7-2 6m-280 28c0 1.9.7 2 14 2s14-.1 14-2-.7-2-14-2-14 .1-14 2m132 0c0 1.9.7 2 14 2s14-.1 14-2-.7-2-14-2-14 .1-14 2m-100 16c0 13.3.1 14 2 14s2-.7 2-14-.1-14-2-14-2 .7-2 14m124 4c0 1.7.7 2 4 2 4 0 4 0 4 10 0 9.3.1 10 2 10s2-.7 2-10-.1-10-2-10q-2 0-2-2c0-1.7-.7-2-4-2s-4 .3-4 2"/><path fill="#69be28" fill-rule="evenodd" d="M556 2c0 2-.7 2-20 2s-20 0-20 2-.7 2-14 2-14 .1-14 2-.7 2-10 2-10 .1-10 2-.7 2-8 2-8 .2-8 2-.7 2-8 2-8 .2-8 2-.7 2-6 2-6 .2-6 2-.7 2-6 2-6 .2-6 2c0 1.7-.7 2-4 2s-4 .3-4 2-.7 2-4 2-4 .3-4 2q0 2-2 2t-2 2c0 1.7-.7 2-4 2s-4 .3-4 2q0 2-2 2t-2 2-2 2-2 2-2 2c-2 0-2 .7-2 20s0 20-2 20-2 .7-2 26 0 26 2 26c1.7 0 2 .7 2 4s.3 4 2 4q2 0 2 2t2 2 2 2 2 2 2 2 2 2 2 2c0 1.7.7 2 4 2s4 .3 4 2q0 2 2 2t2 2c0 1.7.7 2 4 2s4 .3 4 2c0 1.8.7 2 6 2s6 .2 6 2c0 1.7.7 2 4 2s4 .3 4 2c0 1.8.7 2 6 2s6 .2 6 2 .7 2 6 2 6 .2 6 2 .7 2 6 2 6 .2 6 2 .7 2 8 2 8 .2 8 2 .7 2 10 2 10 .1 10 2 .7 2 12 2 12 .1 12 2c0 2 .7 2 16 2s16 0 16 2 .7 2 68 2 68 0 68-2 .7-2 16-2 16 0 16-2c0-1.9.7-2 12-2s12-.1 12-2 .7-2 10-2 10-.1 10-2 .7-2 6-2 6-.2 6-2 .7-2 6-2 6-.2 6-2 .7-2 6-2 6-.2 6-2c0-1.7.7-2 4-2s4-.3 4-2 .7-2 4-2 4-.3 4-2 .7-2 4-2 4-.3 4-2q0-2 2-2t2-2c0-1.7.7-2 4-2 4 0 4 0 4-4 0-3.3.3-4 2-4q2 0 2-2t2-2c1.9 0 2-.7 2-12s-.1-12-2-12c-2 0-2-.7-2-38s0-38-2-38c-1.7 0-2-.7-2-4s-.3-4-2-4q-2 0-2-2t-2-2-2-2-2-2-2-2-2-2-2-2-2-2-2-2c0-1.7-.7-2-4-2s-4-.3-4-2-.7-2-4-2-4-.3-4-2c0-1.8-.7-2-6-2s-6-.2-6-2-.7-2-6-2-6-.2-6-2-.7-2-8-2-8-.2-8-2-.7-2-8-2-8-.2-8-2-.7-2-10-2-10-.1-10-2-.7-2-12-2-12-.1-12-2c0-2-.7-2-20-2s-20 0-20-2-.7-2-54-2-54 0-54 2m0 30c0 3.3-.3 4-2 4-1.9 0-2 .7-2 10s.1 10 2 10 2 .7 2 6c0 6 0 6 6 6 5.3 0 6-.2 6-2q0-2 2-2t2 2 2 2 2-2c0-2 .7-2 28-2s28 0 28 2 .7 2 14 2c14 0 14 0 14-18 0-17.3 0-18-2-18q-2 0-2-2c0-2-.7-2-50-2-50 0-50 0-50 4m-40 2c0 1.9-.7 2-12 2s-12 .1-12 2-.7 2-8 2-8 .2-8 2-.7 2-6 2-6 .2-6 2-.7 2-6 2-6 .2-6 2c0 1.7-.7 2-4 2s-4 .3-4 2-.7 2-4 2-4 .3-4 2q0 2-2 2c-1.8 0-2 .7-2 6s.2 6 2 6q2 0 2 2c0 1.8.7 2 6 2s6 .2 6 2 .7 2 8 2 8-.2 8-2 .7-2 12-2 12-.1 12-2c0-2 .7-2 18-2 18 0 18 0 18-10 0-9.3.1-10 2-10s2-.7 2-10c0-10 0-10-6-10-5.3 0-6 .2-6 2m172 18c0 20 0 20 18 20 17.3 0 18 0 18 2s.7 2 16 2 16 0 16 2c0 1.8.7 2 6 2s6-.2 6-2 .7-2 6-2 6-.2 6-2q0-2 2-2c1.8 0 2-.7 2-6s-.2-6-2-6q-2 0-2-2c0-1.7-.7-2-4-2s-4-.3-4-2-.7-2-4-2-4-.3-4-2-.7-2-4-2-4-.3-4-2c0-1.8-.7-2-8-2s-8-.2-8-2-.7-2-8-2-8-.2-8-2-.7-2-10-2-10-.1-10-2-.7-2-8-2c-8 0-8 0-8 20M408 90q0 2 2 2t2 2c0 1.7.7 2 4 2s4 .3 4 2q0 2 2 2t2 2c0 1.7.7 2 4 2s4 .3 4 2c0 1.8.7 2 6 2s6 .2 6 2 .7 2 6 2 6 .2 6 2 .7 2 8 2 8 .2 8 2 .7 2 10 2 10 .1 10 2c0 2 .7 2 14 2s14 0 14 2 .7 2 24 2 24 0 24 2 .7 2 42 2 42 0 42-2 .7-2 22-2 22 0 22-2c0-1.9.7-2 12-2s12-.1 12-2 .7-2 10-2 10-.1 10-2 .7-2 8-2 8-.2 8-2 .7-2 8-2 8-.2 8-2c0-1.7.7-2 4-2s4-.3 4-2c0-1.8.7-2 6-2s6-.2 6-2q0-2 2-2t2-2c0-1.7.7-2 4-2s4-.3 4-2-.7-2-4-2-4 .3-4 2c0 1.8-.7 2-6 2s-6 .2-6 2-.7 2-8 2-8 .2-8 2-.7 2-12 2-12 .1-12 2c0 2-.7 2-16 2s-16 0-16 2-.7 2-26 2-26 0-26 2-.7 2-52 2-52 0-52-2-.7-2-26-2-26 0-26-2-.7-2-16-2-16 0-16-2c0-1.9-.7-2-10-2s-10-.1-10-2-.7-2-8-2-8-.2-8-2-.7-2-6-2-6-.2-6-2c0-1.7-.7-2-4-2s-4-.3-4-2-.7-2-4-2-4 .3-4 2M268 476c0 27.3 0 28 2 28s2-.7 2-28 0-28-2-28-2 .7-2 28"/></svg>