<svg xmlns="http://www.w3.org/2000/svg" fill="none" viewBox="0 0 776 896"><path fill="#024" fill-rule="evenodd" d="M368 2c0 1.7-.7 2-4 2s-4 .3-4 2q0 2-2 2t-2 2c0 1.7-.7 2-4 2s-4 .3-4 2q0 2-2 2t-2 2-2 2-2 2c0 1.7-.7 2-4 2s-4 .3-4 2q0 2-2 2t-2 2c0 1.7-.7 2-4 2s-4 .3-4 2q0 2-2 2t-2 2c0 1.7-.7 2-4 2s-4 .3-4 2q0 2-2 2t-2 2c0 1.7-.7 2-4 2s-4 .3-4 2q0 2-2 2t-2 2c0 1.7-.7 2-4 2s-4 .3-4 2q0 2-2 2t-2 2c0 1.7-.7 2-4 2s-4 .3-4 2-.7 2-4 2-4 .3-4 2-.7 2-4 2-4 .3-4 2-.7 2-4 2-4 .3-4 2-.7 2-4 2-4 .3-4 2-.7 2-4 2-4 .3-4 2-.7 2-4 2-4 .3-4 2-.7 2-4 2-4 .3-4 2c0 1.8-.7 2-6 2s-6 .2-6 2c0 1.7-.7 2-4 2s-4 .3-4 2c0 1.8-.7 2-6 2s-6 .2-6 2-.7 2-6 2-6 .2-6 2-.7 2-6 2-6 .2-6 2-.7 2-8 2-8 .2-8 2-.7 2-8 2-8 .2-8 2-.7 2-8 2-8 .2-8 2-.7 2-10 2-10 .1-10 2-.7 2-8 2-8 .2-8 2-.7 2-10 2-10 .1-10 2-.7 2-10 2-10 .1-10 2c0 1.7-.7 2-4 2s-4 .3-4 2q0 2-2 2t-2 2c0 1.7-.7 2-4 2s-4 .3-4 2-.7 2-4 2c-4 0-4 0-4 4 0 3.3-.3 4-2 4s-2 .7-2 4-.3 4-2 4c-2 0-2 .7-2 128s0 128 2 128c1.9 0 2 .7 2 12s.1 12 2 12c2 0 2 .7 2 16s0 16 2 16c1.9 0 2 .7 2 12s.1 12 2 12 2 .7 2 8 .2 8 2 8 2 .7 2 6 .2 6 2 6 2 .7 2 8 .2 8 2 8 2 .7 2 6 .2 6 2 6 2 .7 2 6 .2 6 2 6c1.7 0 2 .7 2 4s.3 4 2 4c1.8 0 2 .7 2 6s.2 6 2 6 2 .7 2 6 .2 6 2 6c1.7 0 2 .7 2 4s.3 4 2 4 2 .7 2 4 .3 4 2 4 2 .7 2 4 .3 4 2 4 2 .7 2 4 .3 4 2 4 2 .7 2 4 .3 4 2 4 2 .7 2 4 .3 4 2 4q2 0 2 2t2 2c1.7 0 2 .7 2 4s.3 4 2 4 2 .7 2 4 .3 4 2 4q2 0 2 2t2 2c1.7 0 2 .7 2 4s.3 4 2 4q2 0 2 2t2 2 2 2 2 2c1.7 0 2 .7 2 4s.3 4 2 4q2 0 2 2t2 2 2 2 2 2 2 2 2 2c1.7 0 2 .7 2 4s.3 4 2 4q2 0 2 2t2 2 2 2 2 2 2 2 2 2 2 2 2 2 2 2 2 2 2 2 2 2 2 2 2 2 2 2 2 2 2 2 2 2 2 2 2 2 2 2 2 2 2 2 2 2 2 2 2 2 2 2 2 2 2 2 2 2 2 2c0 1.7.7 2 4 2s4 .3 4 2q0 2 2 2t2 2 2 2 2 2 2 2 2 2c0 1.7.7 2 4 2s4 .3 4 2q0 2 2 2t2 2 2 2 2 2c0 1.7.7 2 4 2s4 .3 4 2q0 2 2 2t2 2c0 1.7.7 2 4 2s4 .3 4 2q0 2 2 2t2 2c0 1.7.7 2 4 2s4 .3 4 2q0 2 2 2t2 2c0 1.7.7 2 4 2s4 .3 4 2 .7 2 4 2 4 .3 4 2q0 2 2 2t2 2c0 1.7.7 2 4 2s4 .3 4 2 .7 2 4 2 4 .3 4 2 .7 2 4 2 4 .3 4 2 .7 2 4 2 4 .3 4 2 .7 2 4 2 4 .3 4 2 .7 2 4 2 4 .3 4 2 .7 2 4 2 4 .3 4 2 .7 2 4 2 4 .3 4 2c0 1.8.7 2 6 2s6 .2 6 2c0 1.7.7 2 4 2s4 .3 4 2c0 1.8.7 2 6 2s6 .2 6 2c0 2 .7 2 20 2s20 0 20-2c0-1.7.7-2 4-2s4-.3 4-2c0-1.8.7-2 6-2s6-.2 6-2c0-1.7.7-2 4-2s4-.3 4-2 .7-2 4-2 4-.3 4-2c0-1.8.7-2 6-2s6-.2 6-2c0-1.7.7-2 4-2s4-.3 4-2 .7-2 4-2 4-.3 4-2 .7-2 4-2 4-.3 4-2q0-2 2-2t2-2c0-1.7.7-2 4-2s4-.3 4-2 .7-2 4-2 4-.3 4-2 .7-2 4-2 4-.3 4-2q0-2 2-2t2-2c0-1.7.7-2 4-2s4-.3 4-2q0-2 2-2t2-2c0-1.7.7-2 4-2s4-.3 4-2q0-2 2-2t2-2c0-1.7.7-2 4-2s4-.3 4-2q0-2 2-2t2-2c0-1.7.7-2 4-2s4-.3 4-2q0-2 2-2t2-2 2-2 2-2c0-1.7.7-2 4-2s4-.3 4-2q0-2 2-2t2-2 2-2 2-2c0-1.7.7-2 4-2s4-.3 4-2q0-2 2-2t2-2 2-2 2-2 2-2 2-2 2-2 2-2 2-2 2-2 2-2 2-2 2-2 2-2 2-2 2-2 2-2 2-2 2-2 2-2 2-2 2-2 2-2 2-2 2-2 2-2 2-2 2-2 2-2 2-2 2-2 2-2 2-2 2-2 2-2c1.7 0 2-.7 2-4s.3-4 2-4q2 0 2-2t2-2 2-2 2-2 2-2 2-2c1.7 0 2-.7 2-4s.3-4 2-4q2 0 2-2t2-2c1.7 0 2-.7 2-4s.3-4 2-4q2 0 2-2t2-2c1.7 0 2-.7 2-4s.3-4 2-4q2 0 2-2t2-2c1.7 0 2-.7 2-4s.3-4 2-4q2 0 2-2t2-2c1.7 0 2-.7 2-4s.3-4 2-4 2-.7 2-4 .3-4 2-4 2-.7 2-4 .3-4 2-4 2-.7 2-4 .3-4 2-4 2-.7 2-4 .3-4 2-4 2-.7 2-4 .3-4 2-4 2-.7 2-4 .3-4 2-4c1.8 0 2-.7 2-6s.2-6 2-6c1.7 0 2-.7 2-4s.3-4 2-4 2-.7 2-4 .3-4 2-4c1.8 0 2-.7 2-6s.2-6 2-6 2-.7 2-6 .2-6 2-6 2-.7 2-6 .2-6 2-6 2-.7 2-8 .2-8 2-8 2-.7 2-10 .1-10 2-10 2-.7 2-14 .1-14 2-14c2 0 2-.7 2-18 0-17 .1-18 1.9-18 3 0 3-1.9 3-134.5-.1-69.8-.4-125.8-.6-124.2-.7 4.7-4.3 3.7-4.3-1.3 0-3.3-.3-4-2-4s-2-.7-2-4-.3-4-2-4q-2 0-2-2t-2-2-2-2c0-1.7-.7-2-4-2s-4-.3-4-2q0-2-2-2t-2-2c0-1.8-.7-2-6-2s-6-.2-6-2-.7-2-6-2-6-.2-6-2-.7-2-12-2-12-.1-12-2-.7-2-10-2-10-.1-10-2-.7-2-10-2-10-.1-10-2-.7-2-6-2-6-.2-6-2-.7-2-8-2-8-.2-8-2-.7-2-6-2-6-.2-6-2-.7-2-6-2-6-.2-6-2-.7-2-6-2-6-.2-6-2-.7-2-6-2-6-.2-6-2c0-1.7-.7-2-4-2s-4-.3-4-2c0-1.8-.7-2-6-2s-6-.2-6-2c0-1.7-.7-2-4-2s-4-.3-4-2-.7-2-4-2-4-.3-4-2c0-1.8-.7-2-6-2s-6-.2-6-2c0-1.7-.7-2-4-2s-4-.3-4-2-.7-2-4-2-4-.3-4-2-.7-2-4-2-4-.3-4-2-.7-2-4-2-4-.3-4-2q0-2-2-2t-2-2c0-1.7-.7-2-4-2s-4-.3-4-2q0-2-2-2t-2-2c0-1.7-.7-2-4-2s-4-.3-4-2-.7-2-4-2-4-.3-4-2q0-2-2-2t-2-2c0-1.7-.7-2-4-2s-4-.3-4-2q0-2-2-2t-2-2c0-1.7-.7-2-4-2s-4-.3-4-2q0-2-2-2t-2-2-2-2-2-2-2-2-2-2-2-2-2-2c0-1.7-.7-2-4-2s-4-.3-4-2q0-2-2-2t-2-2c0-1.8-.7-2-6-2s-6-.2-6-2c0-2-.7-2-20-2s-20 0-20 2M.5 300c0 70.7.1 99.6.3 64.3V235.8C.6 200.4.5 229.3.5 300M772 228c0 39.3 0 40 2 40s2-.7 2-40 0-40-2-40-2 .7-2 40"/><path fill="#eef4ef" fill-rule="evenodd" d="M428 14q0 2 2 2t2 2 2 2 2-2-2-2-2-2-2-2-2 2m344 168c0 5.3.2 6 2 6s2-.7 2-6-.2-6-2-6-2 .7-2 6m-472 24q0 2-2 2c-1.7 0-2 .7-2 4s-.3 4-2 4-2 .7-2 4-.3 4-2 4c-1.8 0-2 .7-2 6s-.2 6-2 6q-2 0-2 2t-2 2-2 2-2 2c-1.8 0-2 .7-2 6s-.2 6-2 6q-2 0-2 2t-2 2c-1.7 0-2 .7-2 4s-.3 4-2 4-2 .7-2 4-.3 4-2 4-2 .7-2 4-.3 4-2 4-2 .7-2 4-.3 4-2 4-2 .7-2 4-.3 4-2 4-2 .7-2 4-.3 4-2 4-2 .7-2 4-.3 4-2 4-2 .7-2 4-.3 4-2 4q-2 0-2 2t-2 2c-1.7 0-2 .7-2 4s-.3 4-2 4-2 .7-2 4-.3 4-2 4-2 .7-2 4-.3 4-2 4-2 .7-2 4-.3 4-2 4-2 .7-2 4-.3 4-2 4-2 .7-2 4-.3 4-2 4-2 .7-2 4-.3 4-2 4-2 .7-2 4-.3 4-2 4-2 .7-2 4-.3 4-2 4-2 .7-2 4-.3 4-2 4-2 .7-2 4-.3 4-2 4-2 .7-2 4-.3 4-2 4-2 .7-2 4-.3 4-2 4c-1.8 0-2 .7-2 6s-.2 6-2 6-2 .7-2 6-.2 6-2 6c-1.7 0-2 .7-2 4s-.3 4-2 4c-2 0-2 .7-2 14s0 14-2 14-2 .7-2 32 0 32 2 32c1.9 0 2 .7 2 12s.1 12 2 12 2 .7 2 6 .2 6 2 6c1.7 0 2 .7 2 4s.3 4 2 4 2 .7 2 4 .3 4 2 4 2 .7 2 4 .3 4 2 4q2 0 2 2t2 2 2 2 2 2c1.7 0 2 .7 2 4s.3 4 2 4q2 0 2 2t2 2 2 2 2 2 2 2 2 2 2 2 2 2 2 2c0 1.7.7 2 4 2s4 .3 4 2q0 2 2 2t2 2c0 1.7.7 2 4 2s4 .3 4 2 .7 2 4 2 4 .3 4 2 .7 2 4 2 4 .3 4 2 .7 2 4 2 4 .3 4 2c0 1.8.7 2 8 2s8 .2 8 2 .7 2 6 2 6 .2 6 2c0 2 .7 2 20 2s20 0 20-2c0-1.9.7-2 12-2s12-.1 12-2 .7-2 8-2 8-.2 8-2 .7-2 6-2 6-.2 6-2c0-1.7.7-2 4-2s4-.3 4-2q0-2 2-2t2-2c0-1.7.7-2 4-2s4-.3 4-2q0-2 2-2t2-2 2-2 2-2 2-2 2-2 2-2 2-2 2-2 2-2 2-2c1.7 0 2-.7 2-4s.3-4 2-4q2 0 2-2t2-2c1.7 0 2-.7 2-4s.3-4 2-4 2-.7 2-4 .3-4 2-4c1.8 0 2-.7 2-6s.2-6 2-6 2-.7 2-6 .2-6 2-6 2-.7 2-8 .2-8 2-8c1.7 0 2-.7 2-4s-.3-4-2-4q-2 0-2-2c0-1.7-.7-2-4-2s-4-.3-4-2c0-2-.7-2-44-2s-44 0-44-2c0-1.7-.7-2-4-2s-4-.3-4-2q0-2-2-2c-1.8 0-2-.7-2-6s-.2-6-2-6c-1.7 0-2-.7-2-4s.3-4 2-4c1.8 0 2-.7 2-6s.2-6 2-6c1.7 0 2-.7 2-4s.3-4 2-4 2-.7 2-4 .3-4 2-4q2 0 2-2t2-2c1.7 0 2-.7 2-4s.3-4 2-4q2 0 2-2t2-2c1.7 0 2-.7 2-4s.3-4 2-4 2-.7 2-4 .3-4 2-4q2 0 2-2t2-2c1.7 0 2-.7 2-4s.3-4 2-4 2-.7 2-4 .3-4 2-4 2-.7 2-4 .3-4 2-4 2-.7 2-4 .3-4 2-4q2 0 2-2t2-2c1.7 0 2-.7 2-4s.3-4 2-4 2-.7 2-4 .3-4 2-4q2 0 2-2t2-2c1.7 0 2-.7 2-4s.3-4 2-4 2-.7 2-4 .3-4 2-4q2 0 2-2t-2-2c-1.7 0-2-.7-2-4s-.3-4-2-4-2-.7-2-4-.3-4-2-4-2-.7-2-4-.3-4-2-4-2-.7-2-4-.3-4-2-4-2-.7-2-4-.3-4-2-4-2-.7-2-4-.3-4-2-4q-2 0-2-2t-2-2c-1.7 0-2-.7-2-4s-.3-4-2-4-2-.7-2-4-.3-4-2-4-2-.7-2-4-.3-4-2-4-2-.7-2-4-.3-4-2-4q-2 0-2-2t-2-2c-1.7 0-2-.7-2-4s-.3-4-2-4-2-.7-2-4-.3-4-2-4-2-.7-2-4-.3-4-2-4q-2 0-2-2t-2-2c-1.7 0-2-.7-2-4s-.3-4-2-4-2-.7-2-4-.3-4-2-4q-2 0-2-2t-2-2c-1.7 0-2-.7-2-4s-.3-4-2-4-2-.7-2-4-.3-4-2-4-2-.7-2-4-.3-4-2-4q-2 0-2-2t-2-2c-1.7 0-2-.7-2-4s-.3-4-2-4-2-.7-2-4c0-4 0-4-8-4-7.3 0-8 .2-8 2m472 74c0 11.3.1 12 2 12s2-.7 2-12-.1-12-2-12-2 .7-2 12M4 448c0 3.3.3 4 2 4s2-.7 2-4-.3-4-2-4-2 .7-2 4m652 270q0 2-2 2t-2 2 2 2 2-2 2-2 2-2-2-2-2 2m-540 4q0 2 2 2t2 2 2 2 2-2-2-2-2-2-2-2-2 2m56 56q0 2 2 2t2 2 2 2 2 2 2 2 2-2-2-2-2-2-2-2-2-2-2-2-2 2m424 0q0 2-2 2t-2 2-2 2-2 2-2 2-2 2 2 2 2-2 2-2 2-2 2-2 2-2 2-2 2-2-2-2-2 2m-400 20q0 2 2 2t2 2 2 2 2-2-2-2-2-2-2-2-2 2"/><path fill="#69be28" fill-rule="evenodd" d="M768 196c0 11.3.1 12 2 12s2-.7 2-12-.1-12-2-12-2 .7-2 12m-180 18q0 2-2 2t-2 2-2 2c-1.7 0-2 .7-2 4s-.3 4-2 4q-2 0-2 2t-2 2c-1.7 0-2 .7-2 4s-.3 4-2 4-2 .7-2 4-.3 4-2 4q-2 0-2 2t-2 2c-1.7 0-2 .7-2 4s-.3 4-2 4q-2 0-2 2t-2 2c-1.7 0-2 .7-2 4s-.3 4-2 4-2 .7-2 4-.3 4-2 4q-2 0-2 2t-2 2c-1.7 0-2 .7-2 4s-.3 4-2 4q-2 0-2 2t-2 2c-1.7 0-2 .7-2 4s-.3 4-2 4q-2 0-2 2t-2 2c-1.7 0-2 .7-2 4s-.3 4-2 4-2 .7-2 4-.3 4-2 4q-2 0-2 2t-2 2c-1.7 0-2 .7-2 4s-.3 4-2 4q-2 0-2 2t-2 2c-1.7 0-2 .7-2 4s-.3 4-2 4-2 .7-2 4-.3 4-2 4q-2 0-2 2t-2 2c-1.7 0-2 .7-2 4s-.3 4-2 4q-2 0-2 2t-2 2c-1.7 0-2 .7-2 4s-.3 4-2 4q-2 0-2 2t-2 2c-1.7 0-2 .7-2 4s-.3 4-2 4q-2 0-2 2t-2 2c-1.7 0-2 .7-2 4s-.3 4-2 4-2 .7-2 4-.3 4-2 4q-2 0-2 2t-2 2c-1.7 0-2 .7-2 4s-.3 4-2 4q-2 0-2 2t-2 2c-1.7 0-2 .7-2 4s-.3 4-2 4q-2 0-2 2t-2 2c-1.7 0-2 .7-2 4s-.3 4-2 4-2 .7-2 4-.3 4-2 4q-2 0-2 2t-2 2c-1.7 0-2 .7-2 4s-.3 4-2 4q-2 0-2 2t-2 2c-1.7 0-2 .7-2 4s-.3 4-2 4q-2 0-2 2t-2 2c-1.7 0-2 .7-2 4s-.3 4-2 4c-1.8 0-2 .7-2 8 0 8 0 8 4 8 3.3 0 4 .3 4 2 0 2 .7 2 42 2s42 0 42 2c0 1.7.7 2 4 2s4 .3 4 2q0 2 2 2c1.8 0 2 .7 2 8s-.2 8-2 8-2 .7-2 8-.2 8-2 8-2 .7-2 8-.2 8-2 8-2 .7-2 8-.2 8-2 8-2 .7-2 10-.1 10-2 10-2 .7-2 8-.2 8-2 8-2 .7-2 8-.2 8-2 8-2 .7-2 8-.2 8-2 8-2 .7-2 10-.1 10-2 10-2 .7-2 8c0 8 0 8 4 8 3.3 0 4 .3 4 2q0 2 2 2t2-2 2-2 2-2 2-2 2-2 2-2 2-2 2-2c1.7 0 2-.7 2-4s.3-4 2-4q2 0 2-2t2-2c1.7 0 2-.7 2-4s.3-4 2-4q2 0 2-2t2-2c1.7 0 2-.7 2-4s.3-4 2-4q2 0 2-2t2-2 2-2 2-2c1.7 0 2-.7 2-4s.3-4 2-4q2 0 2-2t2-2c1.7 0 2-.7 2-4s.3-4 2-4q2 0 2-2t2-2c1.7 0 2-.7 2-4s.3-4 2-4q2 0 2-2t2-2 2-2 2-2c1.7 0 2-.7 2-4s.3-4 2-4 2-.7 2-4 .3-4 2-4q2 0 2-2t2-2 2-2 2-2c1.7 0 2-.7 2-4s.3-4 2-4 2-.7 2-4 .3-4 2-4q2 0 2-2t2-2c1.7 0 2-.7 2-4s.3-4 2-4q2 0 2-2t2-2c1.7 0 2-.7 2-4s.3-4 2-4q2 0 2-2t2-2 2-2 2-2c1.7 0 2-.7 2-4s.3-4 2-4q2 0 2-2t2-2c1.7 0 2-.7 2-4s.3-4 2-4q2 0 2-2t2-2 2-2 2-2c1.7 0 2-.7 2-4s.3-4 2-4q2 0 2-2t2-2c1.7 0 2-.7 2-4s.3-4 2-4q2 0 2-2t2-2c1.7 0 2-.7 2-4s.3-4 2-4q2 0 2-2t2-2c1.7 0 2-.7 2-4s.3-4 2-4q2 0 2-2t2-2c1.7 0 2-.7 2-4s.3-4 2-4q2 0 2-2t2-2c1.8 0 2-.7 2-6s-.2-6-2-6q-2 0-2-2t-2-2-2-2c0-2-.7-2-40-2s-40 0-40-2q0-2-2-2t-2-2-2-2c-1.9 0-2-.7-2-10s.1-10 2-10 2-.7 2-12 .1-12 2-12 2-.7 2-10 .1-10 2-10 2-.7 2-10 .1-10 2-10 2-.7 2-12 .1-12 2-12 2-.7 2-10 .1-10 2-10 2-.7 2-10 .1-10 2-10 2-.7 2-10 .1-10 2-10c1.7 0 2-.7 2-4s.3-4 2-4c1.8 0 2-.7 2-6s-.2-6-2-6q-2 0-2-2t-2-2-2-2c0-1.8-.7-2-6-2s-6 .2-6 2m180 12c0 9.3.1 10 2 10s2-.7 2-10-.1-10-2-10-2 .7-2 10m0 180c0 9.3.1 10 2 10s2-.7 2-10-.1-10-2-10-2 .7-2 10"/></svg>