<svg xmlns="http://www.w3.org/2000/svg" fill="none" viewBox="0 0 920 840"><path fill="#024" fill-rule="evenodd" d="M396 2c0 2-.7 2-22 2s-22 0-22 2-.7 2-14 2-14 .1-14 2-.7 2-12 2-12 .1-12 2-.7 2-10 2-10 .1-10 2-.7 2-8 2-8 .2-8 2-.7 2-8 2-8 .2-8 2-.7 2-6 2-6 .2-6 2-.7 2-8 2-8 .2-8 2-.7 2-6 2-6 .2-6 2c0 1.7-.7 2-4 2s-4 .3-4 2c0 1.8-.7 2-6 2s-6 .2-6 2-.7 2-6 2-6 .2-6 2c0 1.7-.7 2-4 2s-4 .3-4 2-.7 2-4 2-4 .3-4 2-.7 2-4 2-4 .3-4 2-.7 2-4 2-4 .3-4 2-.7 2-4 2-4 .3-4 2-.7 2-4 2-4 .3-4 2-.7 2-4 2-4 .3-4 2q0 2-2 2t-2 2c0 1.7-.7 2-4 2s-4 .3-4 2q0 2-2 2t-2 2c0 1.7-.7 2-4 2s-4 .3-4 2q0 2-2 2t-2 2c0 1.7-.7 2-4 2s-4 .3-4 2q0 2-2 2t-2 2-2 2-2 2-2 2-2 2c0 1.7-.7 2-4 2s-4 .3-4 2q0 2-2 2t-2 2-2 2-2 2-2 2-2 2-2 2-2 2-2 2c-1.7 0-2 .7-2 4s-.3 4-2 4q-2 0-2 2t-2 2-2 2-2 2-2 2-2 2c-1.7 0-2 .7-2 4s-.3 4-2 4-2 .7-2 4-.3 4-2 4q-2 0-2 2t-2 2c-1.7 0-2 .7-2 4s-.3 4-2 4c-1.8 0-2 .7-2 6s-.2 6-2 6-2 .7-2 6-.2 6-2 6c-2 0-2 .7-2 16s0 16-2 16-2 .7-2 42 0 42 2 42c1.8 0 2 .7 2 8s.2 8 2 8c1.7 0 2 .7 2 4s.3 4 2 4 2 .7 2 4 .3 4 2 4 2 .7 2 4 .3 4 2 4 2 .7 2 4 .3 4 2 4q2 0 2 2t2 2 2 2 2 2 2 2 2 2c1.7 0 2 .7 2 4s.3 4 2 4q2 0 2 2t2 2 2 2c0 1.7.7 2 4 2s4 .3 4 2q0 2 2 2t2 2 2 2 2 2 2 2 2 2 2 2 2 2c0 1.7.7 2 4 2s4 .3 4 2q0 2 2 2t2 2c0 1.7.7 2 4 2s4 .3 4 2q0 2 2 2t2 2c0 1.7.7 2 4 2s4 .3 4 2 .7 2 4 2 4 .3 4 2 .7 2 4 2 4 .3 4 2 .7 2 4 2 4 .3 4 2 .7 2 4 2 4 .3 4 2 .7 2 4 2 4 .3 4 2 .7 2 4 2 4 .3 4 2 .7 2 4 2 4 .3 4 2c0 1.8.7 2 6 2s6 .2 6 2c0 1.7.7 2 4 2s4 .3 4 2c0 1.8.7 2 6 2s6 .2 6 2 .7 2 6 2 6 .2 6 2 .7 2 6 2 6 .2 6 2 .7 2 8 2 8 .2 8 2 .7 2 6 2 6 .2 6 2 .7 2 8 2 8 .2 8 2 .7 2 8 2 8 .2 8 2 .7 2 10 2 10 .1 10 2 .7 2 12 2 12 .1 12 2 .7 2 12 2 12 .1 12 2c0 2 .7 2 20 2s20 0 20 2 .7 2 86 2 86 0 86-2 .7-2 20-2 20 0 20-2c0-1.9.7-2 14-2s14-.1 14-2 .7-2 12-2 12-.1 12-2 .7-2 10-2 10-.1 10-2 .7-2 8-2 8-.2 8-2 .7-2 8-2 8-.2 8-2 .7-2 8-2 8-.2 8-2 .7-2 6-2 6-.2 6-2 .7-2 6-2 6-.2 6-2 .7-2 6-2 6-.2 6-2 .7-2 6-2 6-.2 6-2 .7-2 6-2 6-.2 6-2c0-1.7.7-2 4-2s4-.3 4-2 .7-2 4-2 4-.3 4-2 .7-2 4-2 4-.3 4-2 .7-2 4-2 4-.3 4-2 .7-2 4-2 4-.3 4-2 .7-2 4-2 4-.3 4-2 .7-2 4-2 4-.3 4-2 .7-2 4-2 4-.3 4-2q0-2 2-2t2-2c0-1.7.7-2 4-2s4-.3 4-2q0-2 2-2t2-2c0-1.7.7-2 4-2s4-.3 4-2q0-2 2-2t2-2 2-2 2-2 2-2 2-2c0-1.7.7-2 4-2s4-.3 4-2q0-2 2-2t2-2 2-2c1.7 0 2-.7 2-4s.3-4 2-4q2 0 2-2t2-2 2-2 2-2 2-2 2-2c1.7 0 2-.7 2-4s.3-4 2-4 2-.7 2-4 .3-4 2-4c1.8 0 2-.7 2-6s.2-6 2-6 2-.7 2-10c0-9 .2-10 1.9-10 2.7 0 3-7 3-51.5 0-43.1-.3-48.5-3-48.5-1.7 0-1.9-1-1.9-10 0-9.3-.1-10-2-10s-2-.7-2-6-.2-6-2-6-2-.7-2-6-.2-6-2-6c-1.7 0-2-.7-2-4s-.3-4-2-4-2-.7-2-4-.3-4-2-4q-2 0-2-2t-2-2c-1.7 0-2-.7-2-4s-.3-4-2-4q-2 0-2-2t-2-2c-1.7 0-2-.7-2-4s-.3-4-2-4q-2 0-2-2t-2-2-2-2-2-2-2-2-2-2-2-2-2-2-2-2-2-2-2-2-2-2-2-2-2-2-2-2-2-2-2-2-2-2-2-2-2-2-2-2c0-1.7-.7-2-4-2s-4-.3-4-2q0-2-2-2t-2-2c0-1.7-.7-2-4-2s-4-.3-4-2q0-2-2-2t-2-2c0-1.7-.7-2-4-2s-4-.3-4-2q0-2-2-2t-2-2c0-1.7-.7-2-4-2s-4-.3-4-2-.7-2-4-2-4-.3-4-2q0-2-2-2t-2-2c0-1.7-.7-2-4-2s-4-.3-4-2-.7-2-4-2-4-.3-4-2-.7-2-4-2-4-.3-4-2-.7-2-4-2-4-.3-4-2c0-1.8-.7-2-6-2s-6-.2-6-2c0-1.7-.7-2-4-2s-4-.3-4-2c0-1.8-.7-2-6-2s-6-.2-6-2-.7-2-6-2-6-.2-6-2-.7-2-6-2-6-.2-6-2-.7-2-6-2-6-.2-6-2-.7-2-8-2-8-.2-8-2-.7-2-8-2-8-.2-8-2-.7-2-8-2-8-.2-8-2-.7-2-10-2-10-.1-10-2-.7-2-12-2-12-.1-12-2-.7-2-14-2-14 0-14-2-.7-2-22-2-22 0-22-2-.7-2-62-2-62 0-62 2M.5 282c0 23.4 0 33 .2 21.3s.2-30.9 0-42.6c-.1-11.6-.2-2-.2 21.3M72 472c0 11.3.1 12 2 12 1.7 0 2 .7 2 4s.3 4 2 4 2 .7 2 4 .3 4 2 4q2 0 2 2t2 2 2 2 2 2 2 2 2 2 2 2 2 2 2 2 2 2 2 2 2 2 2 2c0 1.7.7 2 4 2s4 .3 4 2q0 2 2 2t2 2 2 2 2 2c0 1.7.7 2 4 2s4 .3 4 2q0 2 2 2t2 2c0 1.7.7 2 4 2s4 .3 4 2 .7 2 4 2 4 .3 4 2q0 2 2 2t2 2c0 1.7.7 2 4 2s4 .3 4 2 .7 2 4 2 4 .3 4 2 .7 2 4 2 4 .3 4 2 .7 2 4 2 4 .3 4 2 .7 2 4 2 4 .3 4 2c0 1.8.7 2 6 2s6 .2 6 2c0 1.7.7 2 4 2s4 .3 4 2c0 1.8.7 2 6 2s6 .2 6 2 .7 2 6 2 6 .2 6 2 .7 2 8 2 8 .2 8 2 .7 2 6 2 6 .2 6 2 .7 2 8 2 8 .2 8 2 .7 2 12 2 12 .1 12 2 .7 2 12 2 12 .1 12 2c0 2 .7 2 20 2s20 0 20 2 .7 2 38 2 38 0 38-2c0-1.8.7-2 8-2s8 .2 8 2q0 2-2 2t-2 2-2 2-2 2c0 1.7-.7 2-4 2s-4 .3-4 2q0 2-2 2t-2 2-2 2-2 2c0 1.7-.7 2-4 2s-4 .3-4 2-.7 2-4 2-4 .3-4 2c0 1.8-.7 2-6 2s-6 .2-6 2-.7 2-6 2-6 .2-6 2-.7 2-6 2-6 .2-6 2-.7 2-10 2-10 .1-10 2c0 2-.7 2-50 2s-50 0-50-2c0-1.9-.7-2-10-2s-10-.1-10-2-.7-2-10-2-10-.1-10-2-.7-2-6-2-6-.2-6-2-.7-2-6-2-6-.2-6-2c0-1.7-.7-2-4-2s-4-.3-4-2c0-1.8-.7-2-6-2s-6-.2-6-2c0-1.7-.7-2-4-2s-4-.3-4-2-.7-2-4-2-4-.3-4-2q0-2-2-2t-2-2c0-1.7-.7-2-4-2s-4-.3-4-2-.7-2-4-2-4-.3-4-2q0-2-2-2t-2-2c0-1.7-.7-2-4-2s-4-.3-4-2q0-2-2-2t-2-2-2-2-2-2-2-2-2-2-2-2-2-2-2-2-2-2-2-2-2-2-2-2-2-2-2-2-2-2-2-2c-1.7 0-2-.7-2-4s-.3-4-2-4-2-.7-2-4-.3-4-2-4q-2 0-2-2c0-1.8-.7-2-6-2-6 0-6 0-6 16 0 15.3 0 16 2 16 1.8 0 2 .7 2 6s.2 6 2 6 2 .7 2 6 .2 6 2 6q2 0 2 2t2 2c1.7 0 2 .7 2 4s.3 4 2 4q2 0 2 2t2 2c1.7 0 2 .7 2 4s.3 4 2 4q2 0 2 2t2 2 2 2 2 2 2 2 2 2 2 2 2 2 2 2 2 2 2 2 2 2 2 2 2 2 2 2 2 2 2 2c0 1.7.7 2 4 2s4 .3 4 2q0 2 2 2t2 2c0 1.7.7 2 4 2s4 .3 4 2 .7 2 4 2 4 .3 4 2q0 2 2 2t2 2c0 1.7.7 2 4 2s4 .3 4 2 .7 2 4 2 4 .3 4 2c0 1.8.7 2 6 2s6 .2 6 2c0 1.7.7 2 4 2s4 .3 4 2c0 1.8.7 2 6 2s6 .2 6 2 .7 2 6 2 6 .2 6 2 .7 2 8 2 8 .2 8 2 .7 2 8 2 8 .2 8 2 .7 2 14 2 14 .1 14 2c0 2 .7 2 40 2s40 0 40-2c0-1.9.7-2 12-2s12-.1 12-2 .7-2 8-2 8-.2 8-2 .7-2 6-2 6-.2 6-2 .7-2 6-2 6-.2 6-2c0-1.7.7-2 4-2s4-.3 4-2 .7-2 4-2 4-.3 4-2 .7-2 4-2 4-.3 4-2 .7-2 4-2 4-.3 4-2 .7-2 4-2 4-.3 4-2q0-2 2-2t2-2c0-1.7.7-2 4-2s4-.3 4-2q0-2 2-2t2-2c0-1.7.7-2 4-2s4-.3 4-2q0-2 2-2t2-2 2-2 2-2 2-2 2-2 2-2 2-2 2-2 2-2 2-2 2-2 2-2c1.7 0 2-.7 2-4s.3-4 2-4q2 0 2-2t2-2c1.7 0 2-.7 2-4s.3-4 2-4 2-.7 2-4 .3-4 2-4 2-.7 2-4 .3-4 2-4c1.8 0 2-.7 2-6s.2-6 2-6c2 0 2-.7 2-20s0-20-2-20c-1.7 0-2-.7-2-4 0-4 0-4-14-4-13.3 0-14 .1-14 2 0 2-.7 2-78 2s-78 0-78-2-.7-2-18-2-18 0-18-2c0-1.9-.7-2-14-2s-14-.1-14-2-.7-2-10-2-10-.1-10-2-.7-2-10-2-10-.1-10-2-.7-2-8-2-8-.2-8-2-.7-2-8-2-8-.2-8-2-.7-2-6-2-6-.2-6-2-.7-2-6-2-6-.2-6-2-.7-2-6-2-6-.2-6-2-.7-2-6-2-6-.2-6-2-.7-2-6-2-6-.2-6-2c0-1.7-.7-2-4-2s-4-.3-4-2-.7-2-4-2-4-.3-4-2-.7-2-4-2-4-.3-4-2c0-1.8-.7-2-6-2s-6-.2-6-2q0-2-2-2t-2-2c0-1.7-.7-2-4-2s-4-.3-4-2-.7-2-4-2-4-.3-4-2q0-2-2-2t-2-2c0-1.7-.7-2-4-2s-4-.3-4-2-.7-2-4-2-4-.3-4-2-.7-2-4-2-4-.3-4-2q0-2-2-2t-2-2c0-1.7-.7-2-4-2-4 0-4 0-4 12m732 14c0 1.7-.7 2-4 2s-4 .3-4 2-.7 2-4 2-4 .3-4 2-.7 2-4 2-4 .3-4 2c0 1.8-.7 2-6 2s-6 .2-6 2-.7 2-6 2-6 .2-6 2-.7 2-6 2-6 .2-6 2-.7 2-6 2-6 .2-6 2-.7 2-6 2-6 .2-6 2-.7 2-8 2-8 .2-8 2-.7 2-8 2-8 .2-8 2-.7 2-8 2-8 .2-8 2-.7 2-8 2-8 .2-8 2-.7 2-12 2-12 .1-12 2-.7 2-12 2-12 .1-12 2-.7 2-6 2c-6 0-6 0-6 8 0 7.3.2 8 2 8 2 0 2 .7 2 22s0 22-2 22c-1.8 0-2 .7-2 8s-.2 8-2 8c-1.7 0-2 .7-2 4s-.3 4-2 4-2 .7-2 4-.3 4-2 4-2 .7-2 4-.3 4-2 4-2 .7-2 4-.3 4-2 4-2 .7-2 4-.3 4-2 4q-2 0-2 2t-2 2-2 2-2 2-2 2-2 2c-1.7 0-2 .7-2 4s-.3 4-2 4q-2 0-2 2t-2 2-2 2-2 2-2 2-2 2-2 2c0 1.7-.7 2-4 2s-4 .3-4 2q0 2-2 2t-2 2-2 2-2 2-2 2-2 2c0 1.7-.7 2-4 2s-4 .3-4 2q0 2-2 2t-2 2c0 1.7-.7 2-4 2s-4 .3-4 2q0 2-2 2t-2 2c0 1.7-.7 2-4 2s-4 .3-4 2-.7 2-4 2-4 .3-4 2-.7 2-4 2-4 .3-4 2-.7 2-4 2-4 .3-4 2-.7 2-4 2-4 .3-4 2-.7 2-4 2-4 .3-4 2c0 1.8-.7 2-6 2s-6 .2-6 2c0 1.7-.7 2-4 2s-4 .3-4 2c0 1.8-.7 2-6 2s-6 .2-6 2-.7 2-8 2-8 .2-8 2-.7 2-6 2-6 .2-6 2-.7 2-10 2-10 .1-10 2-.7 2-10 2-10 .1-10 2c0 2-.7 2-24 2s-24 0-24 2c0 1.8-.7 2-6 2s-6 .2-6 2q0 2-2 2c-1.7 0-2 .7-2 4s-.3 4-2 4q-2 0-2 2t2 2c1.8 0 2 .7 2 6s.2 6 2 6q2 0 2 2t2 2 2 2c0 1.7.7 2 4 2s4 .3 4 2c0 1.8.7 2 8 2s8 .2 8 2c0 2 .7 2 40 2s40 0 40-2c0-1.9.7-2 12-2s12-.1 12-2 .7-2 8-2 8-.2 8-2 .7-2 8-2 8-.2 8-2 .7-2 6-2 6-.2 6-2 .7-2 6-2 6-.2 6-2 .7-2 6-2 6-.2 6-2c0-1.7.7-2 4-2s4-.3 4-2 .7-2 4-2 4-.3 4-2 .7-2 4-2 4-.3 4-2 .7-2 4-2 4-.3 4-2 .7-2 4-2 4-.3 4-2 .7-2 4-2 4-.3 4-2 .7-2 4-2 4-.3 4-2q0-2 2-2t2-2c0-1.7.7-2 4-2s4-.3 4-2q0-2 2-2t2-2c0-1.7.7-2 4-2s4-.3 4-2q0-2 2-2t2-2 2-2 2-2 2-2 2-2c0-1.7.7-2 4-2s4-.3 4-2q0-2 2-2t2-2 2-2 2-2 2-2 2-2 2-2c1.7 0 2-.7 2-4s.3-4 2-4q2 0 2-2t2-2 2-2 2-2c1.7 0 2-.7 2-4s.3-4 2-4q2 0 2-2t2-2c1.7 0 2-.7 2-4s.3-4 2-4q2 0 2-2t2-2 2-2c0-1.7.7-2 4-2 4 0 4 0 4 14 0 13.3-.1 14-2 14s-2 .7-2 6-.2 6-2 6-2 .7-2 6-.2 6-2 6q-2 0-2 2t-2 2c-1.7 0-2 .7-2 4s-.3 4-2 4-2 .7-2 4-.3 4-2 4q-2 0-2 2t-2 2-2 2-2 2-2 2-2 2c-1.7 0-2 .7-2 4s-.3 4-2 4q-2 0-2 2t-2 2-2 2-2 2-2 2-2 2-2 2c0 1.7-.7 2-4 2s-4 .3-4 2q0 2-2 2t-2 2-2 2-2 2c0 1.7-.7 2-4 2s-4 .3-4 2q0 2-2 2t-2 2-2 2-2 2-2 2-2 2-2 2-2 2-2 2c-1.8 0-2 .7-2 6s.2 6 2 6q2 0 2 2c0 2 .7 2 18 2s18 0 18-2c0-1.9.7-2 10-2s10-.1 10-2 .7-2 10-2 10-.1 10-2 .7-2 8-2 8-.2 8-2 .7-2 8-2 8-.2 8-2 .7-2 6-2 6-.2 6-2 .7-2 6-2 6-.2 6-2 .7-2 6-2 6-.2 6-2 .7-2 6-2 6-.2 6-2c0-1.7.7-2 4-2s4-.3 4-2 .7-2 4-2 4-.3 4-2 .7-2 4-2 4-.3 4-2 .7-2 4-2 4-.3 4-2 .7-2 4-2 4-.3 4-2 .7-2 4-2 4-.3 4-2 .7-2 4-2 4-.3 4-2q0-2 2-2t2-2c0-1.7.7-2 4-2s4-.3 4-2q0-2 2-2t2-2 2-2 2-2c0-1.7.7-2 4-2s4-.3 4-2q0-2 2-2t2-2 2-2 2-2 2-2 2-2 2-2 2-2 2-2 2-2 2-2 2-2 2-2 2-2 2-2 2-2 2-2 2-2 2-2 2-2 2-2c1.7 0 2-.7 2-4s.3-4 2-4q2 0 2-2t2-2 2-2 2-2c1.7 0 2-.7 2-4s.3-4 2-4 2-.7 2-4 .3-4 2-4 2-.7 2-4 .3-4 2-4 2-.7 2-4 .3-4 2-4c1.8 0 2-.7 2-6s.2-6 2-6 2-.7 2-8 .2-8 2-8 2-.7 2-14 .1-14 2-14 2-.7 2-10-.1-10-2-10-2-.7-2-14-.1-14-2-14-2-.7-2-6-.2-6-2-6c-1.7 0-2-.7-2-4s-.3-4-2-4c-1.8 0-2-.7-2-6s-.2-6-2-6q-2 0-2-2t-2-2c-1.7 0-2-.7-2-4s-.3-4-2-4q-2 0-2-2t-2-2c-1.7 0-2-.7-2-4s-.3-4-2-4q-2 0-2-2t-2-2-2-2-2-2-2-2-2-2-2-2-2-2-2-2c0-1.7-.7-2-4-2s-4-.3-4-2c0-1.8-.7-2-6-2s-6 .2-6 2"/><path fill="#eef4ef" fill-rule="evenodd" d="M396 2c0 1.7.7 2 4 2s4-.3 4-2-.7-2-4-2-4 .3-4 2m116 0c0 1.7.7 2 4 2s4-.3 4-2-.7-2-4-2-4 .3-4 2m324 104q0 2 2 2t2 2 2 2 2-2-2-2-2-2-2-2-2 2M64 118q0 2-2 2t-2 2-2 2-2 2-2 2-2 2-2 2-2 2-2 2-2 2 2 2 2-2 2-2 2-2 2-2 2-2 2-2 2-2 2-2 2-2 2-2 2-2-2-2-2 2m-32 36q0 2-2 2t-2 2 2 2 2-2 2-2 2-2-2-2-2 2m884 82c0 3.3.3 4 2 4q1.7.1 2.3 1.3.4.9 0-1.7l-.3-5.2q0-2.5-2-2.4c-1.7 0-2 .7-2 4M0 320c0 3.3.3 4 2 4s2-.7 2-4-.3-4-2-4-2 .7-2 4m36 70q0 2 2 2t2 2 2 2 2 2 2 2 2-2-2-2-2-2-2-2-2-2-2-2-2 2m848 8q0 2-2 2t-2 2-2 2-2 2 2 2 2-2 2-2 2-2 2-2 2-2-2-2-2 2M64 414q0 2 2 2t2 2 2 2 2-2-2-2-2-2-2-2-2 2m8 48c0 1.7.7 2 4 2s4-.3 4-2-.7-2-4-2-4 .3-4 2m32 60q0 2 2 2t2 2 2 2 2-2-2-2-2-2-2-2-2 2m612 4c0 1.8-.7 2-6 2s-6 .2-6 2-.7 2-6 2-6 .2-6 2q0 2-2 2t-2-2-2-2-2 2c0 1.8-.7 2-6 2s-6 .2-6 2-.7 2-8 2-8 .2-8 2q0 2 2 2t2 2 2 2c1.7 0 2 .7 2 4s.3 4 2 4q2 0 2 2t2 2 2 2 2 2c1.7 0 2 .7 2 4s.3 4 2 4 2 .7 2 4 .3 4 2 4q2 0 2 2t2 2c1.7 0 2 .7 2 4s.3 4 2 4c1.8 0 2 .7 2 6s.2 6 2 6 2 .7 2 6 .2 6 2 6 2 .7 2 8 .2 8 2 8c2 0 2 .7 2 32s0 32-2 32c-1.8 0-2 .7-2 8s-.2 8-2 8-2 .7-2 6-.2 6-2 6c-1.7 0-2 .7-2 4s-.3 4-2 4-2 .7-2 4-.3 4-2 4-2 .7-2 4-.3 4-2 4q-2 0-2 2t-2 2c-1.7 0-2 .7-2 4s.3 4 2 4q2 0 2-2c0-1.7.7-2 4-2s4-.3 4-2 .7-2 4-2 4-.3 4-2 .7-2 4-2 4-.3 4-2q0-2 2-2t2-2c0-1.7.7-2 4-2s4-.3 4-2q0-2 2-2t2-2 2-2 2-2 2-2 2-2 2-2 2-2 2-2 2-2 2-2 2-2 2-2 2-2 2-2 2-2 2-2c1.7 0 2-.7 2-4s.3-4 2-4q2 0 2-2t2-2c1.7 0 2-.7 2-4s.3-4 2-4 2-.7 2-4 .3-4 2-4 2-.7 2-4 .3-4 2-4c1.8 0 2-.7 2-6s.2-6 2-6 2-.7 2-10 .1-10 2-10c2 0 2-.7 2-18s0-18-2-18c-1.8 0-2-.7-2-8s-.2-8-2-8c-1.7 0-2-.7-2-4s-.3-4-2-4-2-.7-2-4-.3-4-2-4-2-.7-2-4-.3-4-2-4q-2 0-2-2t-2-2c-1.7 0-2-.7-2-4s-.3-4-2-4q-2 0-2-2t-2-2-2-2-2-2-2-2c0-1.7-.7-2-4-2s-4-.3-4-2q0-2-2-2t-2-2c0-1.7-.7-2-4-2s-4-.3-4-2-.7-2-4-2-4 .3-4 2M88 558q0 2 2 2t2 2 2 2 2-2-2-2-2-2-2-2-2 2m24 32q0 2 2 2t2 2 2 2 2 2 2 2 2-2-2-2-2-2-2-2-2-2-2-2-2 2m760 12c0 9.3.1 10 2 10s2-.7 2-10-.1-10-2-10-2 .7-2 10m-500 16c0 1.7.7 2 4 2s4-.3 4-2-.7-2-4-2-4 .3-4 2m64 0c0 1.8.7 2 6 2s6-.2 6-2-.7-2-6-2-6 .2-6 2m88 28q0 2-2 2t-2 2-2 2-2 2-2 2-2 2 2 2 2-2 2-2 2-2 2-2 2-2 2-2 2-2-2-2-2 2m-388 20q0 2 2 2t2 2 2 2 2-2-2-2-2-2-2-2-2 2m172 0c0 1.9.7 2 12 2s12-.1 12-2-.7-2-12-2-12 .1-12 2m196 0q0 2-2 2t-2 2-2 2-2 2 2 2 2-2 2-2 2-2 2-2 2-2-2-2-2 2m60 4q0 2-2 2t-2 2 2 2 2-2 2-2 2-2-2-2-2 2m-28 28q0 2-2 2t-2 2 2 2 2-2 2-2 2-2-2-2-2 2m68 28q0 2-2 2t-2 2-2 2-2 2-2 2-2 2-2 2-2 2 2 2 2-2 2-2 2-2 2-2 2-2 2-2 2-2 2-2 2-2-2-2-2 2m8 40q0 2-2 2t-2 2 2 2 2-2 2-2 2-2-2-2-2 2"/><path fill="#69be28" fill-rule="evenodd" d="M424 74c0 1.9-.7 2-10 2s-10 .1-10 2-.7 2-6 2-6 .2-6 2q0 2-2 2t-2 2c0 1.7-.7 2-4 2-4 0-4 0-4 10 0 9.3.1 10 2 10q2 0 2 2c0 1.7.7 2 4 2s4 .3 4 2 .7 2 4 2 4 .3 4 2 .7 2 4 2 4 .3 4 2c0 1.8.7 2 6 2s6 .2 6 2 .7 2 10 2 10 .1 10 2c0 2 .7 2 18 2s18 0 18-2c0-1.9.7-2 12-2s12-.1 12-2 .7-2 6-2 6-.2 6-2c0-1.7.7-2 4-2s4-.3 4-2 .7-2 4-2 4-.3 4-2 .7-2 4-2 4-.3 4-2q0-2 2-2c1.9 0 2-.7 2-10s-.1-10-2-10q-2 0-2-2c0-1.7-.7-2-4-2s-4-.3-4-2c0-1.8-.7-2-6-2s-6-.2-6-2-.7-2-8-2-8-.2-8-2c0-2-.7-2-38-2s-38 0-38 2m-140 28c0 1.8-.7 2-8 2s-8 .2-8 2c0 1.7-.7 2-4 2s-4 .3-4 2c0 1.8-.7 2-6 2s-6 .2-6 2c0 1.7-.7 2-4 2s-4 .3-4 2q0 2-2 2t-2 2c0 1.7-.7 2-4 2s-4 .3-4 2q0 2-2 2c-1.8 0-2 .7-2 8s.2 8 2 8q2 0 2 2c0 1.8.7 2 6 2s6 .2 6 2c0 1.7.7 2 4 2s4 .3 4 2c0 1.8.7 2 6 2s6 .2 6 2 .7 2 8 2 8 .2 8 2 .7 2 6 2 6 .2 6 2 .7 2 8 2 8 .2 8 2c0 2 .7 2 30 2s30 0 30-2c0-1.7.7-2 4-2s4-.3 4-2 .7-2 4-2 4-.3 4-2q0-2 2-2c1.9 0 2-.7 2-10s-.1-10-2-10q-2 0-2-2t-2-2-2-2c0-1.7-.7-2-4-2s-4-.3-4-2q0-2-2-2t-2-2c0-1.7-.7-2-4-2s-4-.3-4-2-.7-2-4-2-4-.3-4-2-.7-2-4-2-4-.3-4-2c0-1.8-.7-2-6-2s-6-.2-6-2c0-1.7-.7-2-4-2s-4-.3-4-2c0-1.8-.7-2-8-2s-8-.2-8-2-.7-2-10-2-10 .1-10 2m324 0c0 1.8-.7 2-6 2s-6 .2-6 2c0 1.7-.7 2-4 2s-4 .3-4 2-.7 2-4 2-4 .3-4 2-.7 2-4 2-4 .3-4 2-.7 2-4 2-4 .3-4 2-.7 2-4 2-4 .3-4 2-.7 2-4 2-4 .3-4 2q0 2-2 2t-2 2c0 1.7-.7 2-4 2-4 0-4 0-4 4 0 3.3-.3 4-2 4-1.8 0-2 .7-2 6s.2 6 2 6q2 0 2 2t2 2 2 2 2 2 2 2c0 1.8.7 2 6 2s6 .2 6 2c0 2 .7 2 28 2s28 0 28-2c0-1.8.7-2 8-2s8-.2 8-2 .7-2 8-2 8-.2 8-2 .7-2 6-2 6-.2 6-2 .7-2 6-2 6-.2 6-2 .7-2 6-2 6-.2 6-2c0-1.7.7-2 4-2s4-.3 4-2q0-2 2-2c1.8 0 2-.7 2-8s-.2-8-2-8q-2 0-2-2t-2-2-2-2c0-1.7-.7-2-4-2s-4-.3-4-2-.7-2-4-2-4-.3-4-2c0-1.8-.7-2-6-2s-6-.2-6-2-.7-2-6-2-6-.2-6-2-.7-2-10-2-10-.1-10-2-.7-2-8-2-8 .2-8 2m-468 28c0 1.7-.7 2-4 2s-4 .3-4 2-.7 2-4 2-4 .3-4 2q0 2-2 2t-2 2-2 2-2 2-2 2-2 2-2 2-2 2-2 2-2 2-2 2-2 2-2 2c-1.7 0-2 .7-2 4s-.3 4-2 4q-2 0-2 2t-2 2c-1.7 0-2 .7-2 4s-.3 4-2 4c-1.8 0-2 .7-2 6s-.2 6-2 6-2 .7-2 8-.2 8-2 8-2 .7-2 12 .1 12 2 12 2 .7 2 8 .2 8 2 8 2 .7 2 6 .2 6 2 6c1.7 0 2 .7 2 4s.3 4 2 4 2 .7 2 4 .3 4 2 4q2 0 2 2t2 2 2 2 2 2c1.7 0 2 .7 2 4s.3 4 2 4q2 0 2 2t2 2 2 2 2 2 2 2 2 2 2 2 2 2 2 2 2 2 2 2c0 1.7.7 2 4 2s4 .3 4 2q0 2 2 2t2 2 2 2 2 2c0 1.7.7 2 4 2s4 .3 4 2q0 2 2 2t2 2c0 1.7.7 2 4 2s4 .3 4 2q0 2 2 2t2 2c0 1.7.7 2 4 2s4 .3 4 2 .7 2 4 2 4 .3 4 2 .7 2 4 2 4 .3 4 2 .7 2 4 2 4 .3 4 2 .7 2 4 2 4 .3 4 2c0 1.8.7 2 6 2s6 .2 6 2c0 1.7.7 2 4 2s4 .3 4 2c0 1.8.7 2 6 2s6 .2 6 2 .7 2 6 2 6 .2 6 2 .7 2 6 2 6 .2 6 2 .7 2 6 2 6 .2 6 2 .7 2 8 2 8 .2 8 2 .7 2 8 2 8 .2 8 2 .7 2 10 2 10 .1 10 2 .7 2 14 2 14 .1 14 2c0 2 .7 2 16 2s16 0 16 2 .7 2 70 2 70 0 70-2 .7-2 16-2 16 0 16-2c0-1.9.7-2 12-2s12-.1 12-2 .7-2 10-2 10-.1 10-2 .7-2 10-2 10-.1 10-2 .7-2 8-2 8-.2 8-2 .7-2 6-2 6-.2 6-2 .7-2 6-2 6-.2 6-2 .7-2 6-2 6-.2 6-2 .7-2 6-2 6-.2 6-2c0-1.7.7-2 4-2s4-.3 4-2c0-1.8.7-2 6-2s6-.2 6-2c0-1.7.7-2 4-2s4-.3 4-2 .7-2 4-2 4-.3 4-2 .7-2 4-2 4-.3 4-2 .7-2 4-2 4-.3 4-2q0-2 2-2t2-2c0-1.7.7-2 4-2s4-.3 4-2 .7-2 4-2 4-.3 4-2q0-2 2-2t2-2c0-1.7.7-2 4-2s4-.3 4-2q0-2 2-2t2-2 2-2 2-2 2-2 2-2 2-2 2-2 2-2 2-2 2-2 2-2 2-2 2-2 2-2 2-2 2-2 2-2 2-2 2-2 2-2c1.7 0 2-.7 2-4s.3-4 2-4q2 0 2-2t2-2c1.7 0 2-.7 2-4s.3-4 2-4 2-.7 2-4 .3-4 2-4c1.8 0 2-.7 2-6s.2-6 2-6 2-.7 2-10 .1-10 2-10 2-.7 2-8-.2-8-2-8-2-.7-2-10-.1-10-2-10c-1.7 0-2-.7-2-4s-.3-4-2-4-2-.7-2-4-.3-4-2-4-2-.7-2-4-.3-4-2-4q-2 0-2-2t-2-2-2-2-2-2-2-2-2-2-2-2-2-2-2-2-2-2-2-2-2-2-2-2c0-1.7-.7-2-4-2s-4-.3-4-2-.7-2-4-2-4-.3-4-2q0-2-2-2t-2-2c0-1.7-.7-2-4-2s-4 .3-4 2q0 2 2 2t2 2 2 2c1.7 0 2 .7 2 4s.3 4 2 4q2 0 2 2t2 2c1.7 0 2 .7 2 4s.3 4 2 4 2 .7 2 4 .3 4 2 4c1.8 0 2 .7 2 6s.2 6 2 6 2 .7 2 6 .2 6 2 6c2 0 2 .7 2 22s0 22-2 22c-1.8 0-2 .7-2 6s-.2 6-2 6c-1.7 0-2 .7-2 4s-.3 4-2 4-2 .7-2 4-.3 4-2 4q-2 0-2 2t-2 2c-1.7 0-2 .7-2 4s-.3 4-2 4q-2 0-2 2t-2 2-2 2-2 2-2 2-2 2-2 2-2 2-2 2-2 2-2 2c0 1.7-.7 2-4 2s-4 .3-4 2q0 2-2 2t-2 2c0 1.7-.7 2-4 2s-4 .3-4 2q0 2-2 2t-2 2c0 1.7-.7 2-4 2s-4 .3-4 2-.7 2-4 2-4 .3-4 2-.7 2-4 2-4 .3-4 2-.7 2-4 2-4 .3-4 2-.7 2-4 2-4 .3-4 2c0 1.8-.7 2-6 2s-6 .2-6 2c0 1.7-.7 2-4 2s-4 .3-4 2c0 1.8-.7 2-6 2s-6 .2-6 2-.7 2-6 2-6 .2-6 2-.7 2-8 2-8 .2-8 2-.7 2-8 2-8 .2-8 2-.7 2-10 2-10 .1-10 2-.7 2-12 2-12 .1-12 2-.7 2-14 2-14 .1-14 2c0 2-.7 2-22 2s-22 0-22 2-.7 2-44 2-44 0-44-2-.7-2-22-2-22 0-22-2c0-1.9-.7-2-14-2s-14-.1-14-2-.7-2-12-2-12-.1-12-2-.7-2-10-2-10-.1-10-2-.7-2-8-2-8-.2-8-2-.7-2-6-2-6-.2-6-2-.7-2-6-2-6-.2-6-2-.7-2-6-2-6-.2-6-2-.7-2-6-2-6-.2-6-2c0-1.7-.7-2-4-2s-4-.3-4-2c0-1.8-.7-2-6-2s-6-.2-6-2c0-1.7-.7-2-4-2s-4-.3-4-2-.7-2-4-2-4-.3-4-2q0-2-2-2t-2-2c0-1.7-.7-2-4-2s-4-.3-4-2-.7-2-4-2-4-.3-4-2q0-2-2-2t-2-2c0-1.7-.7-2-4-2s-4-.3-4-2q0-2-2-2t-2-2-2-2-2-2-2-2-2-2-2-2-2-2-2-2-2-2-2-2-2-2-2-2-2-2-2-2c-1.7 0-2-.7-2-4s-.3-4-2-4q-2 0-2-2t-2-2c-1.7 0-2-.7-2-4s-.3-4-2-4c-1.8 0-2-.7-2-6s-.2-6-2-6-2-.7-2-10-.1-10-2-10-2-.7-2-6 .2-6 2-6 2-.7 2-10 .1-10 2-10 2-.7 2-6 .2-6 2-6c1.7 0 2-.7 2-4s.3-4 2-4 2-.7 2-4 .3-4 2-4q2 0 2-2t2-2c1.7 0 2-.7 2-4s.3-4 2-4q2 0 2-2t2-2c1.7 0 2-.7 2-4s.3-4 2-4q2 0 2-2c0-1.7-.7-2-4-2s-4 .3-4 2m40 52c0 1.7-.7 2-4 2s-4 .3-4 2q0 2-2 2t-2 2-2 2-2 2-2 2c-1.7 0-2 .7-2 4s-.3 4-2 4c-1.8 0-2 .7-2 6s.2 6 2 6c1.7 0 2 .7 2 4s.3 4 2 4q2 0 2 2t2 2 2 2 2 2 2 2c0 1.7.7 2 4 2s4 .3 4 2c0 2 .7 2 26 2s26 0 26-2c0-1.8.7-2 6-2s6-.2 6-2 .7-2 6-2 6-.2 6-2c0-1.7.7-2 4-2s4-.3 4-2 .7-2 4-2 4-.3 4-2 .7-2 4-2 4-.3 4-2q0-2 2-2t2-2 2-2c1.7 0 2-.7 2-4s-.3-4-2-4-2-.7-2-4c0-4 0-4-4-4-3.3 0-4-.3-4-2s-.7-2-4-2-4-.3-4-2c0-1.8-.7-2-6-2s-6-.2-6-2-.7-2-10-2-10-.1-10-2c0-2-.7-2-28-2s-28 0-28 2m252 0c0 1.8-.7 2-8 2s-8 .2-8 2-.7 2-6 2-6 .2-6 2q0 2-2 2t-2 2c0 1.7-.7 2-4 2-4 0-4 0-4 4 0 3.3-.3 4-2 4s-2 .7-2 4 .3 4 2 4q2 0 2 2t2 2 2 2 2 2 2 2 2 2 2 2c0 1.8.7 2 6 2s6 .2 6 2 .7 2 6 2 6 .2 6 2c0 2 .7 2 30 2s30 0 30-2c0-1.8.7-2 6-2s6-.2 6-2 .7-2 6-2 6-.2 6-2q0-2 2-2t2-2c0-1.7.7-2 4-2 4 0 4 0 4-4 0-3.3.3-4 2-4 1.8 0 2-.7 2-6s-.2-6-2-6q-2 0-2-2t-2-2-2-2c0-1.7-.7-2-4-2s-4-.3-4-2-.7-2-4-2-4-.3-4-2c0-1.8-.7-2-8-2s-8-.2-8-2c0-2-.7-2-28-2s-28 0-28 2m248 0c0 1.9-.7 2-10 2s-10 .1-10 2-.7 2-8 2-8 .2-8 2c0 1.7-.7 2-4 2s-4 .3-4 2-.7 2-4 2c-4 0-4 0-4 4 0 3.3-.3 4-2 4q-2 0-2 2t2 2c1.7 0 2 .7 2 4s.3 4 2 4q2 0 2 2c0 1.7.7 2 4 2s4 .3 4 2 .7 2 4 2 4 .3 4 2c0 1.8.7 2 6 2s6 .2 6 2 .7 2 6 2 6 .2 6 2 .7 2 8 2 8 .2 8 2c0 2 .7 2 26 2s26 0 26-2q0-2 2-2t2-2c0-1.7.7-2 4-2s4-.3 4-2q0-2 2-2c1.7 0 2-.7 2-4s.3-4 2-4c1.9 0 2-.7 2-12s-.1-12-2-12q-2 0-2-2t-2-2-2-2-2-2-2-2c0-1.8-.7-2-6-2s-6-.2-6-2c0-2-.7-2-28-2s-28 0-28 2m-368 64c0 1.8-.7 2-8 2s-8 .2-8 2-.7 2-8 2-8 .2-8 2-.7 2-6 2-6 .2-6 2-.7 2-6 2-6 .2-6 2-.7 2-6 2-6 .2-6 2c0 1.7-.7 2-4 2s-4 .3-4 2q0 2-2 2t-2 2-2 2c-1.7 0-2 .7-2 4s.3 4 2 4 2 .7 2 4 .3 4 2 4q2 0 2 2c0 1.7.7 2 4 2s4 .3 4 2 .7 2 4 2 4 .3 4 2 .7 2 4 2 4 .3 4 2 .7 2 4 2 4 .3 4 2c0 1.8.7 2 8 2s8 .2 8 2 .7 2 12 2 12-.1 12-2 .7-2 8-2 8-.2 8-2c0-1.7.7-2 4-2s4-.3 4-2c0-1.8.7-2 6-2s6-.2 6-2c0-1.7.7-2 4-2s4-.3 4-2 .7-2 4-2 4-.3 4-2 .7-2 4-2 4-.3 4-2q0-2 2-2t2-2c0-1.7.7-2 4-2s4-.3 4-2q0-2 2-2c1.9 0 2-.7 2-12s-.1-12-2-12q-2 0-2-2c0-1.7-.7-2-4-2s-4-.3-4-2-.7-2-4-2-4-.3-4-2c0-2-.7-2-26-2s-26 0-26 2m244 0c0 1.7-.7 2-4 2s-4 .3-4 2-.7 2-4 2-4 .3-4 2q0 2-2 2c-1.7 0-2 .7-2 4s-.3 4-2 4c-1.8 0-2 .7-2 6s.2 6 2 6q2 0 2 2t2 2 2 2c0 1.7.7 2 4 2s4 .3 4 2 .7 2 4 2 4 .3 4 2 .7 2 4 2 4 .3 4 2 .7 2 4 2 4 .3 4 2 .7 2 4 2 4 .3 4 2 .7 2 4 2 4 .3 4 2 .7 2 4 2 4 .3 4 2c0 1.8.7 2 8 2s8 .2 8 2 .7 2 8 2 8-.2 8-2 .7-2 12-2 12-.1 12-2 .7-2 6-2 6-.2 6-2c0-1.7.7-2 4-2s4-.3 4-2 .7-2 4-2 4-.3 4-2q0-2 2-2t2-2 2-2 2-2 2-2c1.8 0 2-.7 2-8s-.2-8-2-8q-2 0-2-2c0-1.8-.7-2-6-2s-6-.2-6-2-.7-2-6-2-6-.2-6-2-.7-2-6-2-6-.2-6-2-.7-2-6-2-6-.2-6-2-.7-2-8-2-8-.2-8-2-.7-2-6-2-6-.2-6-2c0-2-.7-2-28-2s-28 0-28 2m-124 44c0 1.8-.7 2-8 2s-8 .2-8 2-.7 2-6 2-6 .2-6 2q0 2-2 2t-2 2c0 1.7-.7 2-4 2s-4 .3-4 2q0 2-2 2t-2 2-2 2-2 2-2 2c-1.8 0-2 .7-2 8 0 8 0 8 4 8 3.3 0 4 .3 4 2s.7 2 4 2 4 .3 4 2c0 1.8.7 2 6 2s6 .2 6 2c0 2 .7 2 46 2s46 0 46-2c0-1.9.7-2 12-2s12-.1 12-2 .7-2 6-2c6 0 6 0 6-4 0-3.3.3-4 2-4 1.8 0 2-.7 2-6s-.2-6-2-6q-2 0-2-2t-2-2-2-2-2-2-2-2c0-1.7-.7-2-4-2s-4-.3-4-2-.7-2-4-2-4-.3-4-2-.7-2-4-2-4-.3-4-2c0-1.8-.7-2-8-2s-8-.2-8-2c0-2-.7-2-28-2s-28 0-28 2"/></svg>