<svg xmlns="http://www.w3.org/2000/svg" fill="none" viewBox="0 0 576 992"><path fill="#024" fill-rule="evenodd" d="M260 2c0 2-.7 2-18 2s-18 0-18 2c0 1.8-.7 2-6 2s-6 .2-6 2q0 2-2 2t-2 2-2 2-2 2-2 2c-2 0-2 .7-2 28 0 28 0 28-16 28-15.3 0-16 0-16 2 0 1.9-.7 2-10 2s-10 .1-10 2-.7 2-8 2-8 .2-8 2-.7 2-6 2-6 .2-6 2c0 1.7-.7 2-4 2s-4 .3-4 2q0 2-2 2t-2 2-2 2-2 2-2 2c-2 0-2 .7-2 16s0 16 2 16q2 0 2 2c0 1.8.7 2 6 2s6-.2 6-2 .7-2 12-2 12-.1 12-2c0-2 .7-2 22-2s22 0 22-2 .7-2 102-2 102 0 102 2 .7 2 24 2 24 0 24 2 .7 2 14 2 14 0 14 2c0 1.7.7 2 4 2s4-.3 4-2q0-2 2-2c1.9 0 2-.7 2-14s-.1-14-2-14c-1.7 0-2-.7-2-4s-.3-4-2-4q-2 0-2-2t-2-2-2-2c0-1.7-.7-2-4-2s-4-.3-4-2c0-1.8-.7-2-6-2s-6-.2-6-2-.7-2-8-2-8-.2-8-2-.7-2-12-2-12-.1-12-2c0-2-.7-2-16-2-16 0-16 0-16-18 0-17.3 0-18 2-18 1.7 0 2-.7 2-4s-.3-4-2-4c-1.8 0-2-.7-2-8s-.2-8-2-8q-2 0-2-2t-2-2-2-2c0-1.8-.7-2-6-2s-6-.2-6-2c0-2-.7-2-16-2s-16 0-16-2-.7-2-30-2-30 0-30 2m-72 148c0 2-.7 2-24 2s-24 0-24 2-.7 2-18 2-18 0-18 2-.7 2-18 2-18 0-18 2c0 1.8-.7 2-8 2s-8 .2-8 2-.7 2-6 2-6 .2-6 2c0 1.7-.7 2-4 2s-4 .3-4 2-.7 2-4 2-4 .3-4 2q0 2-2 2t-2 2-2 2-2 2-2 2-2 2-2 2c-1.8 0-2 .7-2 6s-.2 6-2 6c-2 0-2 .7-2 174s0 174-2 174-2 .7-2 78 0 78 2 78 2 .7 2 70 0 70 2 70c1.8 0 2 .7 2 6s.2 6 2 6c1.7 0 2 .7 2 4s.3 4 2 4q2 0 2 2t2 2 2 2 2 2 2 2 2 2 2 2c0 1.7.7 2 4 2s4 .3 4 2 .7 2 4 2 4 .3 4 2c0 1.8.7 2 6 2s6 .2 6 2 .7 2 6 2 6 .2 6 2 .7 2 10 2 10 .1 10 2 .7 2 12 2 12 .1 12 2 .7 2 14 2 14 .1 14 2c0 2 .7 2 16 2s16 0 16 2 .7 2 24 2 24 0 24 2 .7 2 66 2 66 0 66-2 .7-2 30-2 30 0 30-2 .7-2 18-2 18 0 18-2c0-1.9.7-2 14-2s14-.1 14-2 .7-2 10-2 10-.1 10-2 .7-2 8-2 8-.2 8-2 .7-2 6-2 6-.2 6-2 .7-2 6-2 6-.2 6-2c0-1.7.7-2 4-2s4-.3 4-2q0-2 2-2t2-2c0-1.7.7-2 4-2s4-.3 4-2q0-2 2-2c1.7 0 2-.7 2-4s.3-4 2-4q2 0 2-2t2-2c1.8 0 2-.7 2-6s.2-6 2-6 2-.7 2-8c0-7.1.2-8 1.8-8 2.6 0 3.2-100 2.5-394.2-.6-214.6-.7-221.8-2.5-221.8-1.6 0-1.8-1-1.8-10 0-9.3-.1-10-2-10-1.7 0-2-.7-2-4s-.3-4-2-4-2-.7-2-4-.3-4-2-4q-2 0-2-2t-2-2-2-2c0-1.7-.7-2-4-2s-4-.3-4-2-.7-2-4-2-4-.3-4-2c0-1.8-.7-2-6-2s-6-.2-6-2-.7-2-12-2-12-.1-12-2c0-2-.7-2-16-2s-16 0-16-2-.7-2-20-2-20 0-20-2-.7-2-24-2-24 0-24-2-.7-2-98-2-98 0-98 2M.5 630c0 43.2.1 60.8.3 39.3v-78.5c-.2-21.6-.3-4-.3 39.2M68 932c0 11.3.1 12 2 12 1.7 0 2 .7 2 4s.3 4 2 4 2 .7 2 4 .3 4 2 4q2 0 2 2c0 1.7.7 2 4 2s4 .3 4 2q0 2 2 2t2 2c0 1.8.7 2 6 2s6 .2 6 2c0 1.7.7 2 4 2s4 .3 4 2c0 1.8.7 2 6 2s6 .2 6 2 .7 2 8 2 8 .2 8 2 .7 2 12 2 12 .1 12 2 .7 2 8 2 8-.2 8-2 .7-2 6-2 6-.2 6-2q0-2 2-2t2-2 2-2 2-2c0-2 .7-2 90-2 90 0 90 0 90 4 0 3.3.3 4 2 4q2 0 2 2c0 1.8.7 2 6 2s6 .2 6 2 .7 2 10 2 10-.1 10-2 .7-2 12-2 12-.1 12-2 .7-2 6-2 6-.2 6-2 .7-2 6-2 6-.2 6-2 .7-2 6-2 6-.2 6-2c0-1.7.7-2 4-2s4-.3 4-2 .7-2 4-2 4-.3 4-2q0-2 2-2t2-2 2-2 2-2 2-2 2-2 2-2c1.9 0 2-.7 2-10s.1-10 2-10c1.7 0 2-.7 2-4s-.3-4-2-4q-2 0-2-2c0-1.8-.7-2-6-2s-6 .2-6 2-.7 2-10 2-10 .1-10 2-.7 2-10 2-10 .1-10 2-.7 2-12 2-12 .1-12 2c0 2-.7 2-16 2s-16 0-16 2-.7 2-28 2-28 0-28 2-.7 2-50 2-50 0-50-2-.7-2-28-2-28 0-28-2-.7-2-18-2-18 0-18-2c0-1.9-.7-2-14-2s-14-.1-14-2-.7-2-10-2-10-.1-10-2-.7-2-8-2-8-.2-8-2-.7-2-10-2c-10 0-10 0-10 12"/><path fill="#eef4ef" fill-rule="evenodd" d="M260 2c0 1.8.7 2 6 2s6-.2 6-2-.7-2-6-2-6 .2-6 2m48 0c0 1.8.7 2 6 2s6-.2 6-2-.7-2-6-2-6 .2-6 2m64 34c0 3.3.3 4 2 4s2-.7 2-4-.3-4-2-4-2 .7-2 4m-196 94c0 1.7.7 2 4 2s4-.3 4-2-.7-2-4-2-4 .3-4 2m-68 8c0 1.7.7 2 4 2s4-.3 4-2-.7-2-4-2-4 .3-4 2m80 12c0 1.7.7 2 4 2s4-.3 4-2-.7-2-4-2-4 .3-4 2m-48 4c0 1.7.7 2 4 2s4-.3 4-2-.7-2-4-2-4 .3-4 2m412 24q0 2 2 2t2 2 2 2 2 2 2 2 2-2-2-2-2-2-2-2-2-2-2-2-2 2m20 350c0 298.7 0 308 1.8 308 2.6 0 3.2-100 2.5-394.2-.6-214.6-.7-221.8-2.5-221.8-1.7 0-1.8 9.4-1.8 308M264 242c0 1.8-.7 2-6 2s-6 .2-6 2-.7 2-6 2-6 .2-6 2c0 1.7-.7 2-4 2s-4 .3-4 2q0 2-2 2t-2 2c0 1.7-.7 2-4 2s-4 .3-4 2q0 2-2 2t-2 2-2 2-2 2-2 2-2 2-2 2-2 2-2 2c-1.7 0-2 .7-2 4s-.3 4-2 4-2 .7-2 4-.3 4-2 4-2 .7-2 4-.3 4-2 4-2 .7-2 4-.3 4-2 4c-1.8 0-2 .7-2 8s-.2 8-2 8c-2 0-2 .7-2 18s0 18 2 18c1.8 0 2 .7 2 8s.2 8 2 8 2 .7 2 6 .2 6 2 6c1.7 0 2 .7 2 4s.3 4 2 4q2 0 2 2t2 2 2 2 2 2c1.7 0 2 .7 2 4s.3 4 2 4q2 0 2 2t2 2 2 2c0 1.7.7 2 4 2s4 .3 4 2q0 2 2 2t2 2 2 2 2 2c0 1.7.7 2 4 2s4 .3 4 2 .7 2 4 2 4 .3 4 2c0 1.8.7 2 6 2s6 .2 6 2 .7 2 10 2 10 .1 10 2 .7 2 14 2 14-.1 14-2 .7-2 10-2 10-.1 10-2 .7-2 6-2 6-.2 6-2c0-1.7.7-2 4-2s4-.3 4-2 .7-2 4-2 4-.3 4-2q0-2 2-2t2-2 2-2 2-2 2-2 2-2 2-2 2-2 2-2 2-2 2-2 2-2 2-2 2-2 2-2c1.7 0 2-.7 2-4s.3-4 2-4 2-.7 2-4 .3-4 2-4c1.8 0 2-.7 2-6s.2-6 2-6 2-.7 2-6 .2-6 2-6c2 0 2-.7 2-18s0-18-2-18c-1.8 0-2-.7-2-8s-.2-8-2-8-2-.7-2-6-.2-6-2-6q-2 0-2-2t-2-2c-1.7 0-2-.7-2-4s-.3-4-2-4q-2 0-2-2t-2-2c-1.7 0-2-.7-2-4s-.3-4-2-4q-2 0-2-2t-2-2-2-2c0-1.7-.7-2-4-2s-4-.3-4-2q0-2-2-2t-2-2-2-2-2-2c0-1.7-.7-2-4-2s-4-.3-4-2-.7-2-4-2-4-.3-4-2-.7-2-4-2-4-.3-4-2c0-1.8-.7-2-8-2s-8-.2-8-2c0-2-.7-2-24-2s-24 0-24 2m20 30c0 3.3-.3 4-2 4-1.8 0-2 .7-2 8s-.2 8-2 8-2 .7-2 10-.1 10-2 10-2 .7-2 10-.1 10-2 10-2 .7-2 6-.2 6-2 6-2 .7-2 6-.2 6-2 6c-1.7 0-2 .7-2 4s-.3 4-2 4-2 .7-2 4-.3 4-2 4q-2 0-2 2t-2 2-2 2-2 2c-1.7 0-2 .7-2 4s-.3 4-2 4c-1.9 0-2 .7-2 10s.1 10 2 10q2 0 2 2c0 1.8.7 2 8 2s8-.2 8-2c0-1.7.7-2 4-2s4-.3 4-2q0-2 2-2t2-2c0-1.7.7-2 4-2s4-.3 4-2q0-2 2-2t2-2c0-1.7.7-2 4-2s4-.3 4-2 .7-2 4-2 4-.3 4-2 .7-2 4-2 4-.3 4-2q0-2 2-2c1.7 0 2-.7 2-4s.3-4 2-4c2 0 2-.7 2-26s0-26-2-26c-1.8 0-2-.7-2-8s-.2-8-2-8-2-.7-2-8-.2-8-2-8-2-.7-2-6-.2-6-2-6q-2 0-2-2t-2-2-2-2c0-1.8-.7-2-6-2-6 0-6 0-6 4M1 630c0 68.7.2 78 1.5 78S4 698.7 4 630s-.2-78-1.5-78S1 561.3 1 630m555 244q0 2-2 2t-2 2 2 2 2-2 2-2 2-2-2-2-2 2m-152 40c0 1.7.7 2 4 2s4-.3 4-2-.7-2-4-2-4 .3-4 2m-184 4c0 1.7.7 2 4 2s4-.3 4-2-.7-2-4-2-4 .3-4 2m120 0c0 1.8.7 2 6 2s6-.2 6-2-.7-2-6-2-6 .2-6 2m168 10c0 3.3.3 4 2 4s2-.7 2-4-.3-4-2-4-2 .7-2 4m-276 14c0 1.8.7 2 6 2s6-.2 6-2-.7-2-6-2-6 .2-6 2m112 0c0 1.8.7 2 6 2s6-.2 6-2-.7-2-6-2-6 .2-6 2M76 958q0 2 2 2t2 2 2 2 2-2-2-2-2-2-2-2-2 2m124 16q0 2-2 2t-2 2 2 2 2-2 2-2 2-2-2-2-2 2m180 8q0 2 2 2t2 2 2 2 2-2-2-2-2-2-2-2-2 2m-208 8c0 1.7.7 2 4 2s4-.3 4-2-.7-2-4-2-4 .3-4 2"/><path fill="#69be28" fill-rule="evenodd" d="M260 368c0 3.3-.3 4-2 4q-2 0-2 2t-2 2c-1.7 0-2 .7-2 4s-.3 4-2 4-2 .7-2 4-.3 4-2 4c-1.8 0-2 .7-2 6s.2 6 2 6q2 0 2 2c0 1.7.7 2 4 2s4-.3 4-2 .7-2 4-2 4-.3 4-2q0-2 2-2t2-2c0-1.7.7-2 4-2s4-.3 4-2q0-2 2-2t2-2c0-1.7.7-2 4-2s4-.3 4-2q0-2-2-2t-2-2c0-1.8-.7-2-6-2s-6-.2-6-2q0-2-2-2c-1.7 0-2-.7-2-4s-.3-4-2-4q-2 0-2-2t-2-2c-1.7 0-2 .7-2 4m36 154q0 2-2 2t-2 2c0 1.7-.7 2-4 2s-4 .3-4 2q0 2-2 2t-2 2-2 2-2 2-2 2c-1.7 0-2 .7-2 4s-.3 4-2 4q-2 0-2 2t-2 2-2 2-2 2c-1.7 0-2 .7-2 4s-.3 4-2 4-2 .7-2 4-.3 4-2 4-2 .7-2 4-.3 4-2 4-2 .7-2 4-.3 4-2 4c-1.8 0-2 .7-2 6s-.2 6-2 6-2 .7-2 6-.2 6-2 6c-2 0-2 .7-2 16s0 16-2 16-2 .7-2 18 0 18-2 18q-2 0-2-2t-2-2c-1.7 0-2-.7-2-4s-.3-4-2-4-2-.7-2-4-.3-4-2-4c-2 0-2-.7-2-14s0-14-2-14q-2 0-2 2t-2 2-2 2-2 2-2 2-2 2c-1.7 0-2 .7-2 4s-.3 4-2 4q-2 0-2 2t-2 2c-1.7 0-2 .7-2 4s-.3 4-2 4c-1.8 0-2 .7-2 6s-.2 6-2 6-2 .7-2 6-.2 6-2 6-2 .7-2 10-.1 10-2 10c-2 0-2 .7-2 14s0 14 2 14c1.9 0 2 .7 2 12s.1 12 2 12 2 .7 2 6 .2 6 2 6c1.7 0 2 .7 2 4s.3 4 2 4 2 .7 2 4 .3 4 2 4 2 .7 2 4 .3 4 2 4q2 0 2 2t2 2 2 2 2 2 2 2 2 2 2 2 2 2 2 2 2 2 2 2c0 1.7.7 2 4 2s4 .3 4 2q0 2 2 2t2 2c0 1.7.7 2 4 2s4 .3 4 2 .7 2 4 2 4 .3 4 2q0 2 2 2t2 2 2 2c1.7 0 2-.7 2-4s-.3-4-2-4-2-.7-2-4-.3-4-2-4c-1.8 0-2-.7-2-8s-.2-8-2-8-2-.7-2-8 .2-8 2-8 2-.7 2-8 .2-8 2-8q2 0 2-2t2-2c1.7 0 2-.7 2-4s.3-4 2-4q2 0 2-2t2-2c1.7 0 2-.7 2-4s.3-4 2-4q2 0 2-2t2-2c1.7 0 2-.7 2-4s.3-4 2-4 2-.7 2-4 .3-4 2-4 2-.7 2-4 .3-4 2-4 2-.7 2-4 .3-4 2-4q2 0 2-2c0-1.7.7-2 4-2 4 0 4 0 4 4 0 3.3.3 4 2 4s2 .7 2 4 .3 4 2 4c1.8 0 2 .7 2 6s.2 6 2 6q2 0 2 2t2 2c1.7 0 2 .7 2 4s.3 4 2 4 2 .7 2 4 .3 4 2 4q2 0 2 2t2 2 2 2 2 2c1.7 0 2 .7 2 4s.3 4 2 4c1.8 0 2 .7 2 6s.2 6 2 6 2 .7 2 10-.1 10-2 10-2 .7-2 6-.2 6-2 6c-1.7 0-2 .7-2 4s-.3 4-2 4-2 .7-2 4-.3 4-2 4q-2 0-2 2t2 2 2-2c0-1.8.7-2 6-2s6-.2 6-2c0-1.7.7-2 4-2s4-.3 4-2q0-2 2-2t2-2c0-1.7.7-2 4-2s4-.3 4-2q0-2 2-2t2-2 2-2 2-2 2-2 2-2 2-2 2-2 2-2 2-2 2-2c1.7 0 2-.7 2-4s.3-4 2-4q2 0 2-2t2-2c1.7 0 2-.7 2-4s.3-4 2-4 2-.7 2-4 .3-4 2-4c1.8 0 2-.7 2-6s.2-6 2-6 2-.7 2-6 .2-6 2-6c2 0 2-.7 2-26s0-26-2-26c-1.8 0-2-.7-2-8s-.2-8-2-8-2-.7-2-6-.2-6-2-6c-1.7 0-2-.7-2-4s-.3-4-2-4-2-.7-2-4-.3-4-2-4q-2 0-2-2t-2-2c-1.7 0-2-.7-2-4s-.3-4-2-4q-2 0-2-2t-2-2-2-2-2-2c-1.8 0-2 .7-2 8s-.2 8-2 8-2 .7-2 6c0 6 0 6-4 6-3.3 0-4-.3-4-2q0-2-2-2c-1.7 0-2-.7-2-4s-.3-4-2-4q-2 0-2-2t-2-2-2-2-2-2c-1.7 0-2-.7-2-4s-.3-4-2-4q-2 0-2-2t-2-2c-1.7 0-2-.7-2-4s-.3-4-2-4q-2 0-2-2t-2-2c-1.7 0-2-.7-2-4s-.3-4-2-4-2-.7-2-4-.3-4-2-4c-1.8 0-2-.7-2-6s-.2-6-2-6c-1.7 0-2-.7-2-4s-.3-4-2-4c-1.8 0-2-.7-2-8s-.2-8-2-8c-2 0-2-.7-2-22 0-22 0-22-4-22-3.3 0-4 .3-4 2"/></svg>